<svg xmlns="http://www.w3.org/2000/svg" viewBox="0 0 109.2 24">
  <path fill="none" d="M82.3 3.9c-1.6 0-3 .8-3.9 2v4.7c.8 1.2 2.2 2 3.8 2 2.4 0 4.2-1.8 4.2-4.3 0-2.3-1.6-4.4-4.1-4.4zM63 3.9c-2.5 0-4.2 2-4.2 4.3 0 2.4 1.7 4.3 4.2 4.3s4.2-1.9 4.2-4.3c-.1-2.3-1.7-4.3-4.2-4.3zm-37.9 0C22.6 3.9 21 6 21 8.2c0 2.5 1.8 4.3 4.2 4.3 1.6 0 3-.8 3.8-2V5.9c-.8-1.2-2.2-2-3.9-2z"/>
  <path fill="#4EAE4D" d="M8.6 12.6c-2.6 0-4.4-1.8-4.4-4.3C4.2 5.9 6 4 8.5 4c1.5 0 2.8.8 3.7 1.9l3-2.6C13.7 1.3 11.3 0 8.5 0 3.7 0 0 3.7 0 8.3c0 4.6 3.6 8.2 8.5 8.2 3 0 5.3-1.1 7.2-3.6l-3.3-2.4c-.7 1-2 2.1-3.8 2.1zM63 0c-4.8 0-8.4 3.7-8.4 8.3 0 4.6 3.6 8.2 8.4 8.2 4.8 0 8.4-3.7 8.4-8.2C71.4 3.7 67.8 0 63 0zm0 12.6c-2.5 0-4.2-1.9-4.2-4.3S60.5 4 63 4s4.2 2 4.2 4.3c-.1 2.3-1.7 4.3-4.2 4.3z"/>
  <path fill="none" d="M25.1 3.9C22.6 3.9 21 6 21 8.2c0 2.5 1.8 4.3 4.2 4.3 1.6 0 3-.8 3.8-2V5.9c-.8-1.2-2.2-2-3.9-2z"/>
  <path fill="#4EAE4D" d="M29.7.3c-.3 0-.5.2-.5.5v.8C28 .6 26.4 0 24.6 0c-4.3 0-7.8 3.6-7.8 8.3 0 2.2.8 4.1 2 5.6 1.4 1.6 3.6 2.7 6 2.7 1.6 0 3.1-.5 4.4-1.6v.8c0 .3.2.5.5.5h3.6V.3h-3.6zm-.6 10.3c-.8 1.2-2.2 2-3.8 2-2.4 0-4.2-1.8-4.2-4.3C21.1 6 22.7 4 25.2 4c1.6 0 3 .8 3.9 2v4.6zm21.4-8.1C49.2 1 47.2 0 45 0c-1.8 0-3.3.6-4.5 1.6V.8c0-.3-.2-.5-.5-.5h-3.6v15.8h4.2V5.9c.6-.8 2.1-2 3.9-2 1 0 1.8.3 2.4.9.6.6.9 1.4.9 3v8.4H52V8.1c.1-2.7-.5-4.3-1.5-5.6zm43.7 20.8zm4.2.4zM104.7.3l-4.3 9.5L95.8.3h-4.7l7.1 14.2-4.1 8.8v.2c0 .3.2.5.5.5H98c.2 0 .3-.1.4-.3v-.1L109.2.2h-4.5z"/>
  <path fill="none" d="M82.3 3.9c-1.6 0-3 .8-3.9 2v4.7c.8 1.2 2.2 2 3.8 2 2.4 0 4.2-1.8 4.2-4.3 0-2.3-1.6-4.4-4.1-4.4z"/>
  <path fill="none" d="M82.3 3.9c-1.6 0-3 .8-3.9 2v4.7c.8 1.2 2.2 2 3.8 2 2.4 0 4.2-1.8 4.2-4.3 0-2.3-1.6-4.4-4.1-4.4z"/>
  <path fill="#4EAE4D" d="M78.4 23.5zM82.9 0c-1.8 0-3.4.6-4.6 1.6V.8c0-.3-.2-.5-.5-.5h-3.6v23.2c0 .2.1.4.3.4H78c.3 0 .5-.2.5-.5v-8.5c1.3 1 2.6 1.4 4.2 1.4 2.4 0 4.6-1 6-2.7 1.2-1.4 2-3.4 2-5.6 0-4.4-3.5-8-7.8-8zm-.7 12.6c-1.6 0-3-.8-3.8-2V5.9c.9-1.2 2.3-2 3.9-2 2.5 0 4.1 2.1 4.1 4.3 0 2.5-1.8 4.4-4.2 4.4z"/>
</svg>