<svg xmlns="http://www.w3.org/2000/svg" viewBox="0 0 28 32">
  <g fill="none" fill-rule="evenodd">
    <path fill="#4CAF50" d="M21.8 19.566v-4.774c.003-2.04-1.095-3.94-2.862-4.96l-9.92-5.727c-.883-.51-1.872-.766-2.863-.766-.99 0-1.98.25-2.863.76C1.522 5.12.427 7.02.43 9.06v11.46c-.003 2.04 1.093 3.938 2.862 4.958l9.92 5.727c.882.51 1.872.766 2.862.766s1.98-.25 2.864-.76c1.767-1.02 2.865-2.92 2.863-4.96v-3.62l-3.01 1.74-6.82-3.94c-1.767-1.02-2.863-2.92-2.86-4.96V7.64l6.825 3.94c1.768 1.02 2.864 2.92 2.863 4.96v4.773l3.02-1.74m-3.4 8.063c-.235.394-.566.73-.975.964-.405.234-.873.36-1.35.36s-.945-.124-1.354-.36l-8.41-4.857c-1.77-1.02-2.867-2.92-2.865-4.96v-9.72c0-.962.518-1.86 1.357-2.344.385-.23.824-.35 1.274-.36v10.85c0 2.04 1.096 3.94 2.863 4.96l9.46 5.46"/>
    <path fill="#4CAF50" d="M24.586 6.52L14.666.795c-.88-.51-1.87-.765-2.86-.765S9.823.283 8.94.794l-1.176.7s1.344-.392 2.903.475c.846.47 3.353 1.93 3.353 1.93l7.585 4.38c1.59.91 2.635 2.55 2.826 4.35v5.403l3.02-1.74v-4.82c0-2.04-1.09-3.94-2.86-4.96M24.44 21.1v4.707c0 1.79-1.527 3.18-1.527 3.18l1.53-1.01.154-.08c1.768-1.02 2.865-2.92 2.863-4.96v-3.574l-3.02 1.742"/>
    <path fill="#2F963E" d="M6.155 6.357l-.078.005v3.214l3.018 1.742V7.633l-1.59-.916c-.41-.236-.875-.36-1.35-.36"/>
  </g>
</svg>