<?xml version="1.0" encoding="UTF-8" standalone="no"?>
<svg width="24px" height="24px" viewBox="0 0 24 24" version="1.1" xmlns="http://www.w3.org/2000/svg" xmlns:xlink="http://www.w3.org/1999/xlink">
    <!-- Generator: Sketch 40.3 (33839) - http://www.bohemiancoding.com/sketch -->
    <title>100-percent-zoom</title>
    <desc>Created with Sketch.</desc>
    <defs></defs>
    <g id="Page-1" stroke="none" stroke-width="1" fill="none" fill-rule="evenodd">
        <g id="100-percent-zoom" fill="#777777">
            <g id="Group-Copy-+-Rectangle-906-Copy-8" transform="translate(3.000000, 3.000000)">
                <g id="Group-Copy">
                    <g id="Group">
                        <path d="M1.99508929,18 L16.0049107,18 C17.1073772,18 18,17.1067681 18,16.0049107 L18,1.99508929 C18,0.892622799 17.1067681,0 16.0049107,0 L1.99508929,0 C0.892622799,0 0,0.893231902 0,1.99508929 L0,16.0049107 C0,17.1073772 0.893231902,18 1.99508929,18 Z M2,3.99508929 L1.99508929,2 L16.0049107,2 L16,3.99508929 L16,16.0049107 L14.0049107,16 L1.99508929,16 L2,3.99508929 Z" id="Rectangle-17"></path>
                        <path d="M5.5665,6.572 L3.8235,6.894 C3.7045,6.915 3.6415,6.985 3.6415,7.09 C3.6415,7.286 3.6835,7.678 3.8655,7.678 L4.8175,7.538 L4.8175,10.681 L3.8865,10.681 C3.7395,10.681 3.6765,10.786 3.6765,11.031 L3.6765,11.15 C3.6765,11.395 3.7395,11.5 3.8865,11.5 L6.6025,11.5 C6.7495,11.5 6.8125,11.395 6.8125,11.15 L6.8125,11.031 C6.8125,10.786 6.7495,10.681 6.6025,10.681 L5.8535,10.681 L5.8535,6.74 C5.8535,6.656 5.6785,6.572 5.5665,6.572 L5.5665,6.572 Z M7.3375,9.05 C7.3375,10.625 7.9605,11.556 8.9965,11.556 C10.0325,11.556 10.6555,10.625 10.6555,9.05 C10.6555,7.475 10.0325,6.544 8.9965,6.544 C7.9605,6.544 7.3375,7.475 7.3375,9.05 Z M8.9965,7.363 C9.3885,7.363 9.6055,7.937 9.6055,9.05 C9.6055,10.163 9.3885,10.737 8.9965,10.737 C8.6045,10.737 8.3875,10.163 8.3875,9.05 C8.3875,7.937 8.6045,7.363 8.9965,7.363 L8.9965,7.363 Z M12.7415,6.544 C11.7055,6.544 11.0825,7.475 11.0825,9.05 C11.0825,10.625 11.7055,11.556 12.7415,11.556 C13.7775,11.556 14.4005,10.625 14.4005,9.05 C14.4005,7.475 13.7775,6.544 12.7415,6.544 L12.7415,6.544 Z M12.7415,7.363 C13.1335,7.363 13.3505,7.937 13.3505,9.05 C13.3505,10.163 13.1335,10.737 12.7415,10.737 C12.3495,10.737 12.1325,10.163 12.1325,9.05 C12.1325,7.937 12.3495,7.363 12.7415,7.363 L12.7415,7.363 Z" id="100"></path>
                    </g>
                </g>
            </g>
        </g>
    </g>
</svg>