<?xml version="1.0" encoding="UTF-8" standalone="no"?>
<svg width="24px" height="24px" viewBox="0 0 24 24" version="1.1" xmlns="http://www.w3.org/2000/svg" xmlns:xlink="http://www.w3.org/1999/xlink">
    <!-- Generator: Sketch 40.1 (33804) - http://www.bohemiancoding.com/sketch -->
    <title>2</title>
    <desc>Created with Sketch.</desc>
    <defs>
        <polygon id="path-1" points="0 0 18 0 18 18 0 18"></polygon>
    </defs>
    <g id="Page-1" stroke="none" stroke-width="1" fill="none" fill-rule="evenodd">
        <g id="2">
            <g id="Page-1" transform="translate(3.000000, 3.000000)">
                <mask id="mask-2" fill="white">
                    <use xlink:href="#path-1"></use>
                </mask>
                <g id="Clip-2"></g>
                <path d="M13,7.6083 C13,8.7163 11.697,10.0003 10.597,10.0003 L10.596,10.0003 L7,10.0003 L7,13.0003 L11.595,13.0003 L13,13.0003 L13,15.0003 L7.596,15.0003 L5,15.0003 L5,9.6203 C5,8.5123 5.493,8.0003 6.593,8.0003 L6.594,8.0003 L11,8.0003 L11,5.0003 L5.595,5.0003 L5,5.0003 L5,3.0003 L9.594,3.0003 L10.597,3.0003 C11.701,3.0003 13,3.5003 13,4.6203 L13,7.6083 Z M18,2.0003 C18,0.8953 17.105,0.0003 16,0.0003 L2,0.0003 C0.895,0.0003 0,0.8953 0,2.0003 L0,16.0003 C0,17.1043 0.895,18.0003 2,18.0003 L16,18.0003 C17.105,18.0003 18,17.1043 18,16.0003 L18,2.0003 Z" id="Fill-1" fill="#777777" mask="url(#mask-2)"></path>
            </g>
        </g>
    </g>
</svg>