<svg xmlns="http://www.w3.org/2000/svg" viewBox="0 0 24 24" xmlns:xlink="http://www.w3.org/1999/xlink">
  <defs>
    <path id="a" d="M0 0h18v18H0z"/>
  </defs>
  <g fill-rule="evenodd" transform="translate(3 3)">
    <mask id="b" fill="#fff">
      <use xlink:href="#a"/>
    </mask>
    <path d="M13 7.608C13 8.716 11.697 10 10.597 10H7v3h6v2H5V9.62C5 8.512 5.493 8 6.593 8H11V5H5V3h5.597C11.7 3 13 3.5 13 4.62v2.988zM18 2c0-1.105-.895-2-2-2H2C.895 0 0 .895 0 2v14c0 1.104.895 2 2 2h14c1.105 0 2-.896 2-2V2z" mask="url(#b)"/>
  </g>
</svg>