<svg xmlns="http://www.w3.org/2000/svg" viewBox="0 0 24 24" xmlns:xlink="http://www.w3.org/1999/xlink">
  <defs>
    <path id="a" d="M0 0h18v18H0z"/>
  </defs>
  <g fill-rule="evenodd" transform="translate(3 3)">
    <mask id="b" fill="#fff">
      <use xlink:href="#a"/>
    </mask>
    <path d="M13 7.994c0 .365-.098.708-.268 1.003.17.295.268.64.268 1.01v2.987C13 14.102 12.356 15 11.257 15H5v-2h6v-3H7V8h4V5H5V3h6.257C12.36 3 13 3.886 13 5.006v2.988zM18 2c0-1.105-.895-2-2-2H2C.895 0 0 .895 0 2v14c0 1.104.895 2 2 2h14c1.105 0 2-.896 2-2V2z" mask="url(#b)"/>
  </g>
</svg>