<?xml version="1.0" encoding="UTF-8" standalone="no"?>
<svg width="24px" height="24px" viewBox="0 0 24 24" version="1.1" xmlns="http://www.w3.org/2000/svg" xmlns:xlink="http://www.w3.org/1999/xlink">
    <!-- Generator: Sketch 40.1 (33804) - http://www.bohemiancoding.com/sketch -->
    <title>alarm</title>
    <desc>Created with Sketch.</desc>
    <defs></defs>
    <g id="Page-1" stroke="none" stroke-width="1" fill="none" fill-rule="evenodd">
        <g id="alarm" fill="#777777">
            <g id="Shape-+-Rectangle-698-+-Rectangle-906-Copy-10" transform="translate(2.000000, 2.000000)">
                <g id="Shape-+-Rectangle-698">
                    <path d="M20,3.86 L15.4,0 L14.11,1.53 L18.71,5.39 L20,3.86 L20,3.86 Z M5.88,1.53 L4.6,0 L0,3.85 L1.29,5.38 L5.88,1.53 L5.88,1.53 Z M10,2.14 C5.03,2.14 1,6.17 1,11.14 C1,16.11 5.02,20.14 10,20.14 C14.97,20.14 19,16.11 19,11.14 C19,6.17 14.97,2.14 10,2.14 L10,2.14 Z M3,11.14 C3,7.27 6.13,4.14 10,4.14 C13.87,4.14 17,7.27 17,11.14 C17,15.01 13.87,18.14 10,18.14 C6.13,18.14 3,15.01 3,11.14 Z" id="Shape"></path>
                    <path d="M10.935295,11.2235398 L10.5,6 L9.50000001,6 L9,12 L9.01421356,12 L9,12.0142136 L13.3033009,15.6104076 L14.0104076,14.9033009 L10.935295,11.2235398 Z" id="Rectangle-698"></path>
                </g>
            </g>
        </g>
    </g>
</svg>