<svg xmlns="http://www.w3.org/2000/svg" viewBox="0 0 24 24">
  <path fill-rule="evenodd" d="M10.986 8.95c0-.556.445-1.002 1.005-1.002.554 0 1.005.45 1.005.996v9.046c0 1.1-.893 1.994-1.99 1.994h-.975c-1.097 0-1.99-.898-1.99-2.003V8.04c0-2.206 1.79-3.998 3.99-3.998 2.21 0 3.993 1.78 3.993 3.99v7.96h2V8.03c0-3.314-2.68-5.99-5.992-5.99-3.304 0-5.99 2.688-5.99 5.998v9.943c0 2.208 1.786 4.004 3.99 4.004h.975c2.202 0 3.99-1.79 3.99-3.994V8.944c0-1.65-1.348-2.996-3.004-2.996-1.664 0-3.004 1.342-3.004 3.003v8.014h2V8.95z"/>
</svg>