<?xml version="1.0" encoding="UTF-8" standalone="no"?>
<svg width="24px" height="24px" viewBox="0 0 24 24" version="1.1" xmlns="http://www.w3.org/2000/svg" xmlns:xlink="http://www.w3.org/1999/xlink">
    <!-- Generator: Sketch 40.1 (33804) - http://www.bohemiancoding.com/sketch -->
    <title>attachment</title>
    <desc>Created with Sketch.</desc>
    <defs></defs>
    <g id="Page-1" stroke="none" stroke-width="1" fill="none" fill-rule="evenodd">
        <g id="attachment" fill="#777777">
            <g id="Path-40-+-Rectangle-906-Copy-10" transform="translate(6.000000, 2.000000)">
                <path d="M4.98615247,6.95092157 C4.98615247,6.39407472 5.4312091,5.94822092 5.99060347,5.94822092 C6.54387391,5.94822092 6.99505448,6.39840826 6.99505448,6.94433741 L6.99505448,15.9903965 C6.99505448,17.0909183 6.10233621,17.9842637 5.00492339,17.9842637 L4.02966953,17.9842637 C2.93314698,17.9842637 2.03953845,17.0858297 2.03953845,15.9807755 L2.03953845,6.03838347 C2.03953845,3.83187029 3.83047277,2.03986917 6.03120232,2.03986917 C8.23856185,2.03986917 10.0228662,3.82136687 10.0228662,6.02861825 L10.0228662,13.9910757 L12.0228662,13.9910757 L12.0228662,6.02861825 C12.0228662,2.71609196 9.34242717,0.039869173 6.03120232,0.039869173 C2.72563658,0.039869173 0.0395384485,2.72756731 0.0395384485,6.03838347 L0.0395384485,15.9807755 C0.0395384485,18.1879952 1.82615916,19.9842637 4.02966953,19.9842637 L5.00492339,19.9842637 C7.20722025,19.9842637 8.99505448,18.1951735 8.99505448,15.9903965 L8.99505448,6.94433741 C8.99505448,5.29285087 7.64745792,3.94822092 5.99060347,3.94822092 C4.32583758,3.94822092 2.98615247,5.29030566 2.98615247,6.95092157 L2.98615247,14.9636522 L4.98615247,14.9636522 L4.98615247,6.95092157 Z" id="Path-40"></path>
            </g>
        </g>
    </g>
</svg>