<?xml version="1.0" encoding="UTF-8" standalone="no"?>
<svg width="24px" height="24px" viewBox="0 0 24 24" version="1.1" xmlns="http://www.w3.org/2000/svg" xmlns:xlink="http://www.w3.org/1999/xlink">
    <!-- Generator: Sketch 40.1 (33804) - http://www.bohemiancoding.com/sketch -->
    <title>billing</title>
    <desc>Created with Sketch.</desc>
    <defs></defs>
    <g id="Page-1" stroke="none" stroke-width="1" fill="none" fill-rule="evenodd">
        <g id="billing" fill="#777777">
            <g id="Group-+-Rectangle-906-Copy" transform="translate(3.000000, 3.000000)">
                <g id="Group">
                    <g transform="translate(6.000000, 4.000000)" id="Rectangle-18">
                        <path d="M6,5.5 L6,5 C6,4.44386482 5.55641359,4 5.00922203,4 L2,4 L2,3 L6,3 L6,1 L0.990777969,1 C0.720907934,1 0.473239641,1.1119028 0.29302576,1.29283014 C0.109742877,1.47653039 0,1.72524434 0,1.99980749 L0,5.00019251 C0,5.27669034 0.110686293,5.52540648 0.289877909,5.70561088 C0.469544856,5.8890594 0.717213757,6 0.990777969,6 L4,6 L4,7 L0,7 L0,9 L5.00922203,9 C5.27909207,9 5.52676036,8.8880972 5.70697424,8.70716986 C5.89025712,8.52346961 6,8.27475566 6,8.00019251 L6,5.5 Z M2,9 L4,9 L4,10 L2,10 L2,9 Z M2,0 L4,0 L4,1 L2,1 L2,0 Z"></path>
                    </g>
                    <path d="M1.99508929,18 L16.0049107,18 C17.1073772,18 18,17.1067681 18,16.0049107 L18,1.99508929 C18,0.892622799 17.1067681,0 16.0049107,0 L1.99508929,0 C0.892622799,0 0,0.893231902 0,1.99508929 L0,16.0049107 C0,17.1073772 0.893231902,18 1.99508929,18 Z M2,3.99508929 L1.99508929,2 L16.0049107,2 L16,3.99508929 L16,16.0049107 L14.0049107,16 L1.99508929,16 L2,3.99508929 Z" id="Rectangle-17"></path>
                </g>
            </g>
        </g>
    </g>
</svg>