<svg xmlns="http://www.w3.org/2000/svg" viewBox="0 0 24 24">
  <g fill-rule="evenodd">
    <path d="M15 12.5V12c0-.556-.444-1-.99-1H11v-1h4V8H9.99c-.27 0-.517.112-.697.293C9.11 8.477 9 8.725 9 9v3c0 .277.11.525.29.706.18.183.427.294.7.294H13v1H9v2h5.01c.27 0 .517-.112.697-.293.183-.184.293-.432.293-.707v-2.5zM11 16h2v1h-2v-1zm0-9h2v1h-2V7z"/>
    <path d="M4.995 21h14.01C20.107 21 21 20.107 21 19.005V4.995C21 3.893 20.107 3 19.005 3H4.995C3.893 3 3 3.893 3 4.995v14.01C3 20.107 3.893 21 4.995 21zM5 6.995L4.995 5h14.01L19 6.995v12.01L17.005 19H4.995L5 6.995z"/>
  </g>
</svg>