<?xml version="1.0" encoding="UTF-8" standalone="no"?>
<svg width="24px" height="24px" viewBox="0 0 24 24" version="1.1" xmlns="http://www.w3.org/2000/svg" xmlns:xlink="http://www.w3.org/1999/xlink" xmlns:sketch="http://www.bohemiancoding.com/sketch/ns">
    <!-- Generator: Sketch 3.4 (15575) - http://www.bohemiancoding.com/sketch -->
    <title>blocks</title>
    <desc>Created with Sketch.</desc>
    <defs></defs>
    <g id="Page-1" stroke="none" stroke-width="1" fill="none" fill-rule="evenodd" sketch:type="MSPage">
        <g id="blocks" sketch:type="MSArtboardGroup">
            <g id="Rectangle-67-Copy-+-Rectangle-906-Copy-11" sketch:type="MSLayerGroup">
                <g id="Rectangle-67-Copy" transform="translate(4.000000, 2.000000)" fill="#777777" sketch:type="MSShapeGroup">
                    <path d="M0,1.99079514 C0,0.891309342 0.902306354,0 2.00932295,0 L12.0047363,0 L16,4.00708008 L16,18.0068221 C16,19.1076239 15.1054862,20 14.0059397,20 L1.99406028,20 C0.892771196,20 0,19.1017876 0,18.0092049 L0,1.99079514 Z M11,1 L15,5 L11,5 L11,1 Z M2,7 L11,7 L11,9 L2,9 L2,7 Z M2,11 L14,11 L14,13 L2,13 L2,11 Z M2,15 L14,15 L14,17 L2,17 L2,15 Z" id="Rectangle-67"></path>
                </g>
                <rect id="Rectangle-906-Copy-11" sketch:type="MSShapeGroup" x="0" y="0" width="24" height="24"></rect>
            </g>
        </g>
    </g>
</svg>