<?xml version="1.0" encoding="UTF-8" standalone="no"?>
<svg width="24px" height="24px" viewBox="0 0 24 24" version="1.1" xmlns="http://www.w3.org/2000/svg" xmlns:xlink="http://www.w3.org/1999/xlink">
    <!-- Generator: Sketch 40.1 (33804) - http://www.bohemiancoding.com/sketch -->
    <title>business</title>
    <desc>Created with Sketch.</desc>
    <defs></defs>
    <g id="Page-1" stroke="none" stroke-width="1" fill="none" fill-rule="evenodd">
        <g id="business" fill="#777777">
            <g id="Group-+-Rectangle-905-Copy-4" transform="translate(4.000000, 3.000000)">
                <g id="Group">
                    <g>
                        <path d="M0,0 L9,0 L9,18 L0,18 L0,0 Z M2,2 L4,2 L4,4 L2,4 L2,2 Z M5,2 L7,2 L7,4 L5,4 L5,2 Z M2,5 L4,5 L4,7 L2,7 L2,5 Z M5,5 L7,5 L7,7 L5,7 L5,5 Z M2,8 L4,8 L4,10 L2,10 L2,8 Z M5,8 L7,8 L7,10 L5,10 L5,8 Z M2,11 L4,11 L4,13 L2,13 L2,11 Z M5,11 L7,11 L7,13 L5,13 L5,11 Z M2,14 L4,14 L4,16 L2,16 L2,14 Z M5,14 L7,14 L7,16 L5,16 L5,14 Z" id="Rectangle-348"></path>
                        <path d="M8,6 L17,6 L17,18 L8,18 L8,6 Z M9,7 L16,7 L16,17 L9,17 L9,7 Z M11,15 L14,15 L14,17 L11,17 L11,15 Z" id="Rectangle-349"></path>
                        <rect id="Rectangle-361" x="10" y="8" width="2" height="2"></rect>
                        <rect id="Rectangle-362" x="13" y="8" width="2" height="2"></rect>
                        <rect id="Rectangle-364" x="10" y="11" width="2" height="2"></rect>
                        <rect id="Rectangle-363" x="13" y="11" width="2" height="2"></rect>
                    </g>
                </g>
            </g>
        </g>
    </g>
</svg>