<?xml version="1.0" encoding="UTF-8" standalone="no"?>
<svg width="24px" height="24px" viewBox="0 0 24 24" version="1.1" xmlns="http://www.w3.org/2000/svg" xmlns:xlink="http://www.w3.org/1999/xlink">
    <!-- Generator: Sketch 40.1 (33804) - http://www.bohemiancoding.com/sketch -->
    <title>calendar</title>
    <desc>Created with Sketch.</desc>
    <defs></defs>
    <g id="Page-1" stroke="none" stroke-width="1" fill="none" fill-rule="evenodd">
        <g id="calendar" fill="#777777">
            <g id="Group-+-Rectangle-906-Copy-6" transform="translate(2.000000, 3.000000)">
                <g id="Group">
                    <path d="M16,2 L18.0092049,2 C19.1086907,2 20,2.89451376 20,3.99406028 L20,16.0059397 C20,17.1072288 19.1017876,18 18.0092049,18 L1.99079514,18 C0.891309342,18 0,17.1054862 0,16.0059397 L0,3.99406028 C0,2.8927712 0.898212381,2 1.99079514,2 L4,2 L4,0 L6,0 L6,2 L14,2 L14,0 L16,0 L16,2 Z M2,6 L18,6 L18,16 L2,16 L2,6 Z" id="Rectangle-87"></path>
                    <rect id="Rectangle-89" x="12" y="10" width="4" height="4"></rect>
                </g>
            </g>
        </g>
    </g>
</svg>