<svg viewBox="0 0 20 20" xmlns="http://www.w3.org/2000/svg">
  <g fill="#777" fill-rule="evenodd">
    <path d="M7 2h6v1.002C13 4.102 13.895 5 15 5c1.112 0 2-.894 2-1.998V2h1.01c1.1 0 1.99.893 1.99 1.995v14.01C20 19.107 19.102 20 18.01 20H1.99C.89 20 0 19.107 0 18.005V3.995C0 2.893.898 2 1.99 2H3v1.002C3 4.102 3.895 5 5 5c1.112 0 2-.894 2-1.998V2zM2 7.996v9.008c0 .55.448.996 1 .996h14c.555 0 1-.446 1-.996V7.996c0-.55-.448-.996-1-.996H3c-.555 0-1 .446-1 .996z"/>
    <path d="M4 1.01C4 .45 4.444 0 5 0c.552 0 1 .443 1 1.01v1.98C6 3.55 5.556 4 5 4c-.552 0-1-.443-1-1.01V1.01zm10 0C14 .45 14.444 0 15 0c.552 0 1 .443 1 1.01v1.98C16 3.55 15.556 4 15 4c-.552 0-1-.443-1-1.01V1.01zM7.444 9.628c-.89 0-1.746.207-1.746.657 0 .243.27.684.45.684.162 0 .378-.28 1.062-.28.486 0 .73.28.73.73 0 .45-.343.74-.928.74h-.17c-.19 0-.27.133-.27.45v.16c0 .315.08.45.27.45h.25c.757 0 1.054.324 1.054.92 0 .56-.36.872-.89.872-.73 0-1.144-.37-1.306-.37-.207 0-.44.513-.44.684 0 .56 1.277.74 1.952.74 1.197 0 2.034-.71 2.034-1.91 0-.738-.333-1.34-1.044-1.61v-.037c.513-.215.837-.69.837-1.313 0-.963-.72-1.575-1.85-1.575zm5.364.036l-2.24.414c-.154.027-.235.117-.235.252 0 .252.054.756.288.756l1.23-.18v4.04h-1.2c-.19 0-.27.136-.27.45v.154c0 .315.08.45.27.45h3.49c.19 0 .27-.135.27-.45v-.153c0-.315-.08-.45-.27-.45h-.96V9.88c0-.108-.223-.216-.37-.216z"/>
  </g>
</svg>
