<svg xmlns="http://www.w3.org/2000/svg" viewBox="0 0 24 24">
  <g fill-rule="evenodd">
    <path d="M12 22c5.523 0 10-4.477 10-10S17.523 2 12 2 2 6.477 2 12s4.477 10 10 10zm0-2c-4.418 0-8-3.582-8-8s3.582-8 8-8 8 3.582 8 8-3.582 8-8 8z"/>
    <path d="M15 12.5V12c0-.556-.444-1-.99-1H11v-1h4V8H9.99c-.27 0-.517.112-.697.293C9.11 8.477 9 8.725 9 9v3c0 .277.11.525.29.706.18.183.427.294.7.294H13v1H9v2h5.01c.27 0 .517-.112.697-.293.183-.184.293-.432.293-.707v-2.5zM11 16h2v1h-2v-1zm0-9h2v1h-2V7z"/>
  </g>
</svg>