<?xml version="1.0" encoding="UTF-8" standalone="no"?>
<svg width="24px" height="24px" viewBox="0 0 24 24" version="1.1" xmlns="http://www.w3.org/2000/svg" xmlns:xlink="http://www.w3.org/1999/xlink">
    <!-- Generator: Sketch 40.1 (33804) - http://www.bohemiancoding.com/sketch -->
    <title>client-no-access</title>
    <desc>Created with Sketch.</desc>
    <defs></defs>
    <g id="Page-1" stroke="none" stroke-width="1" fill="none" fill-rule="evenodd">
        <g id="client-no-access" fill="#777777">
            <g id="Oval-115-+-Oval-118-+-Line-+-Imported-Layers-+-Oval-204-Copy-+-Rectangle-906-Copy-8" transform="translate(2.000000, 4.000000)">
                <g id="Oval-115-+-Oval-118-+-Line-+-Imported-Layers-+-Oval-204-Copy">
                    <g id="Oval-115-+-Oval-118-+-Line" transform="translate(8.000000, 0.000000)">
                        <g id="Oval-115-+-Oval-118" transform="translate(0.000000, 0.642857)">
                            <path d="M3.23319642,6.84461058 C4.19304755,7.39755031 5.30912403,7.71428571 6.5,7.71428571 C9.16541475,7.71428571 11.4561196,6.12759186 12.4591432,3.85714286 C11.8555364,2.49081572 10.7855987,1.37210902 9.44829927,0.697805554 L8.21130824,1.92120328 C8.75599227,2.39254786 9.1,3.08511317 9.1,3.85714286 C9.1,5.27730364 7.93594035,6.42857143 6.5,6.42857143 C5.71939221,6.42857143 5.01913173,6.088344 4.54254998,5.54964551 L3.23319642,6.84461058 Z M1.70628718,5.62732872 C1.22551941,5.10838255 0.829769784,4.51112768 0.540856791,3.85714286 C1.5438804,1.58669385 3.83458525,0 6.5,0 C6.7853665,0 7.06643792,0.0181873545 7.34209386,0.0534539792 L6.05887346,1.32257306 C4.97641219,1.50553866 4.12226687,2.35029777 3.93726833,3.42086384 L1.70628718,5.62732872 Z" id="Oval-115"></path>
                            <path d="M7.2879411,2.83442353 C7.59917634,3.06932817 7.8,3.4400408 7.8,3.85714286 C7.8,4.56722325 7.21797017,5.14285714 6.5,5.14285714 C6.07826347,5.14285714 5.70343182,4.94424034 5.46591712,4.63642527 L7.2879411,2.83442353 Z" id="Oval-118"></path>
                        </g>
                        <polygon id="Line" points="10.1769553 1.45115956 10.6365747 0.996590913 9.71733585 0.0874536231 9.25771645 0.542022268 2.36342533 7.36055194 1.90380592 7.81512059 2.82304474 8.72425788 3.28266415 8.26968923"></polygon>
                    </g>
                    <g id="Imported-Layers-+-Oval-204-Copy" transform="translate(0.000000, 5.000000)">
                        <path d="M5.25,7.5 C2.37759375,7.5 0.04725,8.84925 0.0039375,10.52325 L0,11.9715 L10.5,11.9715 L10.5,10.52325 C10.45275,8.84925 8.12240625,7.5 5.25,7.5 Z" id="Imported-Layers"></path>
                        <circle id="Oval-204" cx="5.25" cy="3" r="3"></circle>
                    </g>
                </g>
            </g>
        </g>
    </g>
</svg>