<?xml version="1.0" encoding="UTF-8" standalone="no"?>
<svg width="24px" height="24px" viewBox="0 0 24 24" version="1.1" xmlns="http://www.w3.org/2000/svg" xmlns:xlink="http://www.w3.org/1999/xlink">
    <!-- Generator: Sketch 40.1 (33804) - http://www.bohemiancoding.com/sketch -->
    <title>client-portal-folder</title>
    <desc>Created with Sketch.</desc>
    <defs></defs>
    <g id="Page-1" stroke="none" stroke-width="1" fill="none" fill-rule="evenodd">
        <g id="client-portal-folder" fill="#777777">
            <g id="Group-11" transform="translate(2.000000, 4.000000)">
                <g id="folder-account">
                    <path d="M17,13 L9,13 L9,12 C9,10.67 11.67,10 13,10 C14.33,10 17,10.67 17,12 L17,13 Z M13,5 C14.1045695,5 15,5.8954305 15,7 C15,8.1045695 14.1045695,9 13,9 C11.8954305,9 11,8.1045695 11,7 C11,5.89 11.9,5 13,5 L13,5 Z M18,2 L10,2 L8,0 L2,0 C0.89,0 0,0.89 0,2 L0,14 C0,15.1045695 0.8954305,16 2,16 L18,16 C19.1045695,16 20,15.1045695 20,14 L20,4 C20,2.89 19.1,2 18,2 L18,2 Z" id="Shape"></path>
                </g>
            </g>
        </g>
    </g>
</svg>