<svg xmlns="http://www.w3.org/2000/svg" viewBox="0 0 24 24">
  <g fill-rule="evenodd">
    <path d="M15 14.02c-.376 0-.743.02-1.103.055 1.855.91 3.057 2.334 3.103 3.975v1.93h5v-1.93c-.063-2.232-3.17-4.03-7-4.03"/>
    <path d="M12 14.418c-.91-.253-1.925-.4-3-.4-3.83 0-6.937 1.8-6.995 4.032L2 19.98h14v-1.93c-.045-1.605-1.67-2.982-4-3.632M9 4.02c-2.21 0-4 1.79-4 4 0 2.208 1.79 4 4 4 1.202 0 2.267-.542 3-1.38.615-.704 1-1.613 1-2.62 0-1.01-.385-1.918-1-2.622-.733-.838-1.798-1.38-3-1.38z"/>
    <path d="M15 4.02c-.842 0-1.622.262-2.267.707C13.513 5.61 14 6.753 14 8.02c0 1.265-.488 2.41-1.267 3.29.645.446 1.425.71 2.267.71 2.21 0 4-1.792 4-4 0-2.21-1.79-4-4-4"/>
  </g>
</svg>