<?xml version="1.0" encoding="UTF-8" standalone="no"?>
<svg width="24px" height="24px" viewBox="0 0 24 24" version="1.1" xmlns="http://www.w3.org/2000/svg" xmlns:xlink="http://www.w3.org/1999/xlink">
    <!-- Generator: Sketch 40.1 (33804) - http://www.bohemiancoding.com/sketch -->
    <title>client-access</title>
    <desc>Created with Sketch.</desc>
    <defs></defs>
    <g id="Page-1" stroke="none" stroke-width="1" fill="none" fill-rule="evenodd">
        <g id="client-access" fill="#777777">
            <g id="Oval-115-+-Oval-118-+-Imported-Layers-+-Oval-204-+-Rectangle-905-Copy-7" transform="translate(2.000000, 3.000000)">
                <g id="Oval-115-+-Oval-118-+-Imported-Layers-+-Oval-204">
                    <g id="Oval-115-+-Oval-118" transform="translate(7.000000, 0.500000)">
                        <path d="M12.4591432,4 C11.4561196,6.35453971 9.16541475,8 6.5,8 C3.83458525,8 1.5438804,6.35453971 0.540856791,4 C1.5438804,1.64546029 3.83458525,0 6.5,0 C9.16541475,0 11.4561196,1.64546029 12.4591432,4 Z M6.5,6.66666667 C7.93594035,6.66666667 9.1,5.47275933 9.1,4 C9.1,2.52724067 7.93594035,1.33333333 6.5,1.33333333 C5.06405965,1.33333333 3.9,2.52724067 3.9,4 C3.9,5.47275933 5.06405965,6.66666667 6.5,6.66666667 Z" id="Oval-115"></path>
                        <ellipse id="Oval-118" cx="6.5" cy="4" rx="1.3" ry="1.33333333"></ellipse>
                    </g>
                    <g id="Imported-Layers-+-Oval-204" transform="translate(0.000000, 6.000000)">
                        <path d="M5.25,7.5 C2.37759375,7.5 0.04725,8.84925 0.0039375,10.52325 L0,11.9715 L10.5,11.9715 L10.5,10.52325 C10.45275,8.84925 8.12240625,7.5 5.25,7.5 Z" id="Imported-Layers"></path>
                        <circle id="Oval-204" cx="5.25" cy="3" r="3"></circle>
                    </g>
                </g>
            </g>
        </g>
    </g>
</svg>