<svg xmlns="http://www.w3.org/2000/svg" viewBox="0 0 24 24">
  <g fill-rule="evenodd">
    <g transform="translate(9 3.5)">
      <path d="M12.46 4C11.455 6.355 9.164 8 6.5 8S1.544 6.355.54 4C1.545 1.645 3.836 0 6.5 0s4.956 1.645 5.96 4zM6.5 6.667c1.436 0 2.6-1.194 2.6-2.667 0-1.473-1.164-2.667-2.6-2.667-1.436 0-2.6 1.194-2.6 2.667 0 1.473 1.164 2.667 2.6 2.667z"/>
      <ellipse cx="6.5" cy="4" rx="1.3" ry="1.333"/>
    </g>
    <g transform="translate(2 9)">
      <path d="M5.25 7.5C2.378 7.5.047 8.85.004 10.523L0 11.973l10.5-.002v-1.446C10.453 8.85 8.122 7.5 5.25 7.5z"/>
      <circle cx="5.25" cy="3" r="3"/>
    </g>
  </g>
</svg>