<svg xmlns="http://www.w3.org/2000/svg" viewBox="0 0 24 24">
  <g fill-rule="evenodd">
    <path d="M13.233 11.487c.96.553 2.076.87 3.267.87 2.665 0 4.956-1.587 5.96-3.857-.604-1.366-1.674-2.485-3.012-3.16L18.21 6.565c.546.47.89 1.164.89 1.936 0 1.42-1.164 2.57-2.6 2.57-.78 0-1.48-.34-1.957-.876l-1.31 1.294zm-1.527-1.217c-.48-.52-.876-1.116-1.165-1.77 1.005-2.27 3.296-3.857 5.96-3.857.286 0 .567.018.843.053l-1.283 1.27c-1.084.182-1.938 1.027-2.123 2.098l-2.23 2.206z"/>
    <path d="M17.288 7.477c.31.235.512.606.512 1.023 0 .71-.582 1.286-1.3 1.286-.422 0-.797-.2-1.034-.507l1.822-1.804z"/>
    <path d="M20.177 5.45l.46-.453-.92-.91-.46.455-6.894 6.82-.46.453.92.91.46-.455"/>
    <g transform="translate(2 9)">
      <path d="M5.25 7.5C2.378 7.5.047 8.85.004 10.523L0 11.973l10.5-.002v-1.446C10.453 8.85 8.122 7.5 5.25 7.5z"/>
      <circle cx="5.25" cy="3" r="3"/>
    </g>
  </g>
</svg>