<?xml version="1.0" encoding="UTF-8" standalone="no"?>
<svg width="24px" height="24px" viewBox="0 0 24 24" version="1.1" xmlns="http://www.w3.org/2000/svg" xmlns:xlink="http://www.w3.org/1999/xlink">
    <g id="Page-1" stroke="none" stroke-width="1" fill="none" fill-rule="evenodd">
        <g id="code-file">
            <g id="Rectangle-67-Copy-+-Rectangle-906-Copy-11-Copy-Copy-Copy-Copy-Copy-Copy-Copy" transform="translate(4.000000, 2.000000)">
                <g id="Rectangle-67-Copy-8" fill="#777777">
                    <path d="M0,1.99079514 C0,0.891309342 0.902306354,0 2.00932295,0 L12.0047363,0 L16,4.00708008 L16,18.0068221 C16,19.1076239 15.1054862,20 14.0059397,20 L1.99406028,20 C0.892771196,20 0,19.1017876 0,18.0092049 L0,1.99079514 Z M11,1 L15,5 L11,5 L11,1 Z" id="Rectangle-67"></path>
                </g>
                <g id="Group-2" transform="translate(8.000000, 7.000000)" fill="#FFFFFF">
                    <polygon id="Path" points="2.34408602 0.676878178 0.95601173 1.95928483 3.23362659 4.07843909 0.95601173 6.19759335 2.34408602 7.48 6 4.07843909"></polygon>
                </g>
                <g id="Group-2-Copy" transform="translate(4.500000, 11.000000) scale(-1, 1) translate(-4.500000, -11.000000) translate(1.000000, 7.000000)" fill="#FFFFFF">
                    <polygon id="Path" points="2.34408602 0.676878178 0.95601173 1.95928483 3.23362659 4.07843909 0.95601173 6.19759335 2.34408602 7.48 6 4.07843909"></polygon>
                </g>
            </g>
        </g>
    </g>
</svg>