<?xml version="1.0" encoding="UTF-8" standalone="no"?>
<svg width="24px" height="24px" viewBox="0 0 24 24" version="1.1" xmlns="http://www.w3.org/2000/svg" xmlns:xlink="http://www.w3.org/1999/xlink">
    <!-- Generator: Sketch 40.1 (33804) - http://www.bohemiancoding.com/sketch -->
    <title>cog</title>
    <desc>Created with Sketch.</desc>
    <defs></defs>
    <g id="Page-1" stroke="none" stroke-width="1" fill="none" fill-rule="evenodd">
        <g id="cog" fill="#777777">
            <g id="Star-1-+-Rectangle-906-Copy-6" transform="translate(2.000000, 1.000000)">
                <path d="M12.3951522,17.9471116 L11.4612784,21.148369 C10.5619981,21.2609022 9.65547053,21.2475223 8.76645506,21.1152134 L7.76024265,17.8925366 C6.87618064,17.5790377 6.0458493,17.0933018 5.32376041,16.450705 L2.10378659,17.1681012 C1.82829376,16.8080899 1.5727377,16.4259369 1.33974596,16.0223834 C1.10675422,15.6188299 0.903578063,15.2064353 0.729545572,14.7878459 L2.96081581,12.3579649 C2.76535513,11.4113192 2.75986112,10.4493632 2.93039415,9.52699358 L0.6425804,7.04424968 C0.972505193,6.20818521 1.41418167,5.41641937 1.96127844,4.69388635 L5.20058557,5.48575666 C5.5440559,5.18262125 5.9222063,4.90934426 6.33352798,4.67186758 C6.74484966,4.4343909 7.17058967,4.24354154 7.60484781,4.09765522 L8.53872156,0.896397789 C9.4380019,0.783864605 10.3445295,0.797244475 11.2335449,0.929553457 L12.2397573,4.15223023 C13.1238194,4.46572908 13.9541507,4.95146505 14.6762396,5.59406182 L17.8962134,4.87666563 C18.1717062,5.2366769 18.4272623,5.61882988 18.660254,6.02238341 C18.8932458,6.42593693 19.0964219,6.83833146 19.2704544,7.25692088 L17.0391842,9.68680192 C17.2346449,10.6334476 17.2401389,11.5954036 17.0696059,12.5177732 L19.3574196,15.0005171 C19.0274948,15.8365816 18.5858183,16.6283474 18.0387216,17.3508805 L14.7994144,16.5590101 C14.4559441,16.8621456 14.0777937,17.1354225 13.666472,17.3728992 C13.2551503,17.6103759 12.8294103,17.8012253 12.3951522,17.9471116 Z M10,15 C12.209139,15 14,13.209139 14,11 C14,8.790861 12.209139,7 10,7 C7.790861,7 6,8.790861 6,11 C6,13.209139 7.790861,15 10,15 Z" id="Star-1"></path>
            </g>
        </g>
    </g>
</svg>