<?xml version="1.0" encoding="UTF-8" standalone="no"?>
<svg width="24px" height="24px" viewBox="0 0 24 24" version="1.1" xmlns="http://www.w3.org/2000/svg" xmlns:xlink="http://www.w3.org/1999/xlink">
    <!-- Generator: Sketch 40.1 (33804) - http://www.bohemiancoding.com/sketch -->
    <title>compass</title>
    <desc>Created with Sketch.</desc>
    <defs></defs>
    <g id="Page-1" stroke="none" stroke-width="1" fill="none" fill-rule="evenodd">
        <g id="compass" fill="#777777">
            <g id="explore-+-Rectangle-906-Copy-4" transform="translate(2.000000, 2.000000)">
                <g id="explore">
                    <path d="M10,8.9 C9.4,8.9 8.9,9.4 8.9,10 C8.9,10.6 9.4,11.1 10,11.1 C10.6,11.1 11.1,10.6 11.1,10 C11.1,9.4 10.6,8.9 10,8.9 L10,8.9 Z M10,0 C4.5,0 0,4.5 0,10 C0,15.5 4.5,20 10,20 C15.5,20 20,15.5 20,10 C20,4.5 15.5,0 10,0 L10,0 Z M12.2,12.2 L4,16 L7.8,7.8 L16,4 L12.2,12.2 L12.2,12.2 Z" id="Shape"></path>
                </g>
            </g>
        </g>
    </g>
</svg>