<?xml version="1.0" encoding="UTF-8" standalone="no"?>
<svg width="24px" height="24px" viewBox="0 0 24 24" version="1.1" xmlns="http://www.w3.org/2000/svg" xmlns:xlink="http://www.w3.org/1999/xlink">
    <!-- Generator: Sketch 40.1 (33804) - http://www.bohemiancoding.com/sketch -->
    <title>dock-minimized</title>
    <desc>Created with Sketch.</desc>
    <defs></defs>
    <g id="Page-1" stroke="none" stroke-width="1" fill="none" fill-rule="evenodd">
        <g id="dock-minimized" fill="#777777">
            <g id="Group-2" transform="translate(3.000000, 11.000000)">
                <g id="Group">
                    <path d="M2,8.00138452 C2,8.00374067 16.0049107,8.00119201 16.0049107,8.00119201 C16.0014869,8.00119201 16,5.0009995 16,5.0009995 C16,4.99864334 1.99508929,5.00119201 1.99508929,5.00119201 C1.99851306,5.00119201 2,8.00138452 2,8.00138452 Z M1.99508929,0 L16.0049107,0 C17.1067681,0 18,0.88743329 18,1.99961498 L18,8.00038502 C18,9.10474188 17.1073772,10 16.0049107,10 L1.99508929,10 C0.893231902,10 0,9.11256671 0,8.00038502 L0,1.99961498 C0,0.895258123 0.892622799,0 1.99508929,0 Z" id="Rectangle-1159"></path>
                </g>
            </g>
        </g>
    </g>
</svg>