<?xml version="1.0" encoding="UTF-8" standalone="no"?>
<svg width="24px" height="24px" viewBox="0 0 24 24" version="1.1" xmlns="http://www.w3.org/2000/svg" xmlns:xlink="http://www.w3.org/1999/xlink">
    <!-- Generator: Sketch 40.1 (33804) - http://www.bohemiancoding.com/sketch -->
    <title>dock-expanded</title>
    <desc>Created with Sketch.</desc>
    <defs></defs>
    <g id="Page-1" stroke="none" stroke-width="1" fill="none" fill-rule="evenodd">
        <g id="dock-expanded" fill="#777777">
            <g id="Group-2" transform="translate(3.000000, 3.000000)">
                <g id="Group">
                    <path d="M2,16.0049107 C2,16.0030193 16.0049107,16.0010533 16.0049107,16.0010533 C16.0025029,16.0010533 16,5 16,5 C16,5.00189137 1.99508929,5.00385743 1.99508929,5.00385743 C1.9974971,5.00385743 2,16.0049107 2,16.0049107 Z M1.99508929,0 L16.0049107,0 C17.1067681,0 18,0.892622799 18,1.99508929 L18,16.0049107 C18,17.1067681 17.1073772,18 16.0049107,18 L1.99508929,18 C0.893231902,18 0,17.1073772 0,16.0049107 L0,1.99508929 C0,0.893231902 0.892622799,0 1.99508929,0 Z" id="Rectangle-1159"></path>
                </g>
            </g>
        </g>
    </g>
</svg>