<svg viewBox="0 0 24 24" xmlns="http://www.w3.org/2000/svg" xmlns:xlink="http://www.w3.org/1999/xlink">
  <defs>
    <path id="a" d="M0 20V.484h15.565V20z"/>
    <path id="c" d="M.68.5h3.8v3.8H.68V.5z"/>
  </defs>
  <g fill="none" fill-rule="evenodd">
    <g transform="translate(3 2.5)">
      <mask id="b" fill="#fff">
        <use xlink:href="#a"/>
      </mask>
      <path d="M9.506 11.108H6.233c-.177 0-.32-.144-.32-.32l.01-3.275c0-.085.035-.165.095-.225L12.26 1.03c.202-.2.06-.546-.226-.546H2.387C1.07.484 0 1.554 0 2.87v14.743C0 18.933 1.07 20 2.387 20h10.79c1.318 0 2.388-1.068 2.388-2.387V5.956c0-.285-.346-.43-.547-.227l-5.285 5.28c-.06.06-.142.094-.227.094" fill="#787777" mask="url(#b)"/>
    </g>
    <g transform="translate(16 1.5)">
      <mask id="d" fill="#fff">
        <use xlink:href="#c"/>
      </mask>
      <path d="M4.23 1.874L3.105.75C2.77.416 2.23.416 1.895.75l-.538.538-.298.298-.38.38L1.85 3.13l.788.788.38.38.378-.38.298-.297.537-.535c.337-.335.337-.877 0-1.21" fill="#787777" mask="url(#d)"/>
    </g>
    <path d="M18.262 6.635l-6.06 6.06H10.08c-.148 0-.267-.12-.267-.267l.008-2.112 6.06-6.06c.107-.103.27-.103.375 0l2.01 2.01c.102.1.102.267 0 .37" fill="#787777"/>
  </g>
</svg>
