<svg xmlns="http://www.w3.org/2000/svg" viewBox="0 0 24 24">
  <g fill-rule="evenodd">
    <path d="M4.995 21h14.01C20.107 21 21 20.107 21 19.005V4.995C21 3.893 20.107 3 19.005 3H4.995C3.893 3 3 3.893 3 4.995v14.01C3 20.107 3.893 21 4.995 21zM5 6.995L4.995 5h14.01L19 6.995v12.01L17.005 19H4.995L5 6.995z"/>
    <path d="M11.273 11.536l-2.76 2.718-1.2-1.18-.12 3.734 3.715-.195-1.2-1.18 2.76-2.72"/>
    <path d="M12.468 11.222l-2.76-2.718 1.2-1.182-3.793-.117.198 3.658 1.2-1.182 2.76 2.72"/>
    <path d="M12.787 12.4l2.76-2.72 1.2 1.183.12-3.736-3.715.195 1.2 1.182-2.76 2.718"/>
    <path d="M11.032 12.162l3.32 3.27-1.2 1.18 3.793.118-.198-3.657-1.2 1.18-3.32-3.268"/>
  </g>
</svg>