<?xml version="1.0" encoding="UTF-8" standalone="no"?>
<svg width="24px" height="24px" viewBox="0 0 24 24" version="1.1" xmlns="http://www.w3.org/2000/svg" xmlns:xlink="http://www.w3.org/1999/xlink">
    <!-- Generator: Sketch 40.3 (33839) - http://www.bohemiancoding.com/sketch -->
    <title>fit-to-width-zoom</title>
    <desc>Created with Sketch.</desc>
    <defs></defs>
    <g id="Page-1" stroke="none" stroke-width="1" fill="none" fill-rule="evenodd">
        <g id="fit-to-width-zoom" fill="#777777">
            <g id="Group-Copy-+-Rectangle-906-Copy-8" transform="translate(3.000000, 3.000000)">
                <g id="Group-Copy">
                    <g id="Group">
                        <path d="M1.99508929,18 L16.0049107,18 C17.1073772,18 18,17.1067681 18,16.0049107 L18,1.99508929 C18,0.892622799 17.1067681,0 16.0049107,0 L1.99508929,0 C0.892622799,0 0,0.893231902 0,1.99508929 L0,16.0049107 C0,17.1073772 0.893231902,18 1.99508929,18 Z M2,3.99508929 L1.99508929,2 L16.0049107,2 L16,3.99508929 L16,16.0049107 L14.0049107,16 L1.99508929,16 L2,3.99508929 Z" id="Rectangle-17"></path>
                        <g transform="translate(2.000000, 4.139642)" id="Group-3">
                            <g>
                                <polygon id="Shape" transform="translate(8.960749, 4.931724) rotate(315.000000) translate(-8.960749, -4.931724) " points="5.43350323 2.8780478 9.37609957 6.82064414 7.93618866 8.23873822 12.487995 8.37898928 12.250647 3.98965046 10.8107361 5.40774454 6.82709217 1.48445886"></polygon>
                                <polygon id="Shape-Copy-3" transform="translate(4.931724, 4.931724) scale(-1, 1) rotate(315.000000) translate(-4.931724, -4.931724) " points="1.40447821 2.8780478 5.35794301 6.8315126 3.90716364 8.23873822 8.45896993 8.37898928 8.22162198 3.98965046 6.78171107 5.40774454 2.79806715 1.48445886"></polygon>
                            </g>
                        </g>
                    </g>
                </g>
            </g>
        </g>
    </g>
</svg>