<svg xmlns="http://www.w3.org/2000/svg" viewBox="0 0 24 24">
  <path fill-rule="evenodd" d="M6.054 12.945v4.808H4V7h2.054v4.31h3.828V7h2.07v10.753h-2.07v-4.808H6.054zm11.778-4.022c.432.205.756.48.974.827.218.347.327.73.327 1.147 0 .543-.156.994-.467 1.354-.31.36-.738.612-1.28.755.595.053 1.084.267 1.467.64.382.373.573.89.573 1.547 0 .516-.13.983-.393 1.4-.262.42-.638.75-1.127.995-.49.244-1.067.366-1.734.366-1.227 0-2.197-.43-2.908-1.293l.974-.92c.266.302.55.524.853.666.304.142.633.214.988.214.48 0 .865-.136 1.154-.407.29-.27.434-.638.434-1.1 0-.517-.136-.886-.407-1.108-.272-.222-.675-.333-1.208-.333h-.707l.2-1.214h.48c.436 0 .785-.12 1.047-.36.262-.24.394-.574.394-1 0-.365-.12-.652-.36-.86-.24-.21-.56-.315-.96-.315-.348 0-.663.065-.948.194-.285.13-.57.327-.854.593l-.867-.947c.81-.764 1.748-1.147 2.815-1.147.596 0 1.11.102 1.54.307z"/>
</svg>