<svg xmlns="http://www.w3.org/2000/svg" viewBox="0 0 24 24">
  <path fill-rule="evenodd" d="M6.06 12.96v4.82H4V7h2.06v4.32h3.837V7h2.075v10.78H9.897v-4.82H6.06zm11.847-4.005c.442.222.778.526 1.01.91.232.382.348.81.348 1.283 0 .508-.11.996-.328 1.464-.22.468-.582.987-1.09 1.558-.508.57-1.252 1.324-2.233 2.26h3.85l-.186 1.35h-5.603v-1.257c1.14-1.16 1.96-2.017 2.454-2.574.493-.558.846-1.035 1.055-1.432.21-.396.314-.81.314-1.237 0-.41-.12-.73-.355-.96-.236-.233-.55-.35-.943-.35-.347 0-.65.074-.91.222-.258.147-.53.39-.815.728l-1.056-.83c.76-.98 1.73-1.47 2.916-1.47.606 0 1.13.112 1.57.335z"/>
</svg>