<svg xmlns="http://www.w3.org/2000/svg" viewBox="0 0 24 24">
  <path fill-rule="evenodd" d="M12 22c5.523 0 10-4.477 10-10S17.523 2 12 2 2 6.477 2 12s4.477 10 10 10zm-1.477-8.102v-.578c0-.5.107-.935.32-1.304.214-.37.605-.763 1.173-1.18.547-.39.907-.708 1.082-.953.174-.245.26-.518.26-.82 0-.34-.124-.597-.374-.774-.25-.178-.6-.267-1.046-.267-.782 0-1.672.256-2.672.766l-.852-1.712c1.162-.65 2.393-.976 3.695-.976 1.072 0 1.925.257 2.558.773.633.516.95 1.203.95 2.063 0 .572-.13 1.067-.39 1.484-.262.417-.757.885-1.486 1.406-.5.37-.816.65-.95.844-.132.193-.198.445-.198.758v.468h-2.07zm-.25 2.672c0-.437.118-.768.352-.992.234-.224.576-.336 1.023-.336.433 0 .767.115 1.004.344.237.23.356.557.356.984 0 .412-.12.736-.36.973s-.572.355-1 .355c-.437 0-.776-.115-1.015-.347-.24-.23-.36-.558-.36-.98z"/>
</svg>