<?xml version="1.0" encoding="UTF-8" standalone="no"?>
<svg width="24px" height="24px" viewBox="0 0 24 24" version="1.1" xmlns="http://www.w3.org/2000/svg" xmlns:xlink="http://www.w3.org/1999/xlink">
    <!-- Generator: Sketch 40.1 (33804) - http://www.bohemiancoding.com/sketch -->
    <title>help</title>
    <desc>Created with Sketch.</desc>
    <defs></defs>
    <g id="Page-1" stroke="none" stroke-width="1" fill="none" fill-rule="evenodd">
        <g id="help" fill="#777777">
            <g id="Oval-127-+-Rectangle-906-Copy-7" transform="translate(2.000000, 2.000000)">
                <path d="M10,20 C15.5228475,20 20,15.5228475 20,10 C20,4.4771525 15.5228475,0 10,0 C4.4771525,0 0,4.4771525 0,10 C0,15.5228475 4.4771525,20 10,20 Z M8.5234375,11.8984375 L8.5234375,11.3203125 C8.5234375,10.82031 8.63020727,10.3854185 8.84375,10.015625 C9.05729273,9.64583148 9.44791383,9.25260625 10.015625,8.8359375 C10.5625027,8.44531055 10.9231762,8.12760539 11.0976562,7.8828125 C11.2721363,7.63801961 11.359375,7.36458484 11.359375,7.0625 C11.359375,6.72395664 11.2343763,6.46614672 10.984375,6.2890625 C10.7343737,6.11197828 10.3854189,6.0234375 9.9375,6.0234375 C9.15624609,6.0234375 8.26563,6.27864328 7.265625,6.7890625 L6.4140625,5.078125 C7.57552664,4.42708008 8.80728516,4.1015625 10.109375,4.1015625 C11.182297,4.1015625 12.0351531,4.35937242 12.6679688,4.875 C13.3007844,5.39062758 13.6171875,6.0781207 13.6171875,6.9375 C13.6171875,7.51041953 13.4869805,8.00520625 13.2265625,8.421875 C12.9661445,8.83854375 12.4713578,9.30728906 11.7421875,9.828125 C11.242185,10.1979185 10.9257819,10.4791657 10.7929688,10.671875 C10.6601556,10.8645843 10.59375,11.1171859 10.59375,11.4296875 L10.59375,11.8984375 L8.5234375,11.8984375 Z M8.2734375,14.5703125 C8.2734375,14.1328103 8.39062383,13.8020845 8.625,13.578125 C8.85937617,13.3541655 9.20051859,13.2421875 9.6484375,13.2421875 C10.0807313,13.2421875 10.4153634,13.3567697 10.6523438,13.5859375 C10.8893241,13.8151053 11.0078125,14.143227 11.0078125,14.5703125 C11.0078125,14.9817729 10.888022,15.3059884 10.6484375,15.5429688 C10.408853,15.7799491 10.075523,15.8984375 9.6484375,15.8984375 C9.21093531,15.8984375 8.87239703,15.7825532 8.6328125,15.5507812 C8.39322797,15.3190093 8.2734375,14.9921896 8.2734375,14.5703125 Z" id="Oval-127"></path>
            </g>
        </g>
    </g>
</svg>