<svg xmlns="http://www.w3.org/2000/svg" viewBox="0 0 24 24">
  <g fill-rule="evenodd">
    <path d="M6.974 16.647C8.45 17.507 10.168 18 12 18c4.1 0 7.625-2.468 9.168-6-.93-2.125-2.575-3.866-4.632-4.915L14.633 8.99C15.47 9.72 16 10.8 16 12c0 2.21-1.79 4-4 4-1.2 0-2.278-.53-3.01-1.367l-2.016 2.014zm-2.35-1.893c-.74-.808-1.347-1.737-1.792-2.754C4.375 8.468 7.9 6 12 6c.44 0 .87.028 1.296.083L11.32 8.057c-1.664.285-2.978 1.6-3.263 3.264l-3.432 3.435z"/>
    <path d="M13.212 10.41c.48.365.788.94.788 1.59 0 1.105-.895 2-2 2-.65 0-1.225-.31-1.59-.788l2.802-2.803z"/>
    <path d="M17.657 7.257l.707-.707-1.414-1.414-.707.707L5.636 16.45l-.707.707L6.34 18.57l.707-.705"/>
  </g>
</svg>