<?xml version="1.0" encoding="UTF-8" standalone="no"?>
<svg width="24px" height="24px" viewBox="0 0 24 24" version="1.1" xmlns="http://www.w3.org/2000/svg" xmlns:xlink="http://www.w3.org/1999/xlink">
    <!-- Generator: Sketch 40.1 (33804) - http://www.bohemiancoding.com/sketch -->
    <title>hidden</title>
    <desc>Created with Sketch.</desc>
    <defs></defs>
    <g id="Page-1" stroke="none" stroke-width="1" fill="none" fill-rule="evenodd">
        <g id="hidden" fill="#777777">
            <g id="Oval-115-+-Oval-118-+-Line-+-Rectangle-906-Copy-6" transform="translate(2.000000, 5.000000)">
                <g id="Oval-115-+-Oval-118-+-Line">
                    <g id="Oval-115-+-Oval-118" transform="translate(0.000000, 1.000000)">
                        <path d="M4.97414834,10.647172 C6.45084238,11.5073005 8.16788312,12 10,12 C14.1006381,12 17.6247994,9.53180957 19.1679126,6 C18.2392868,3.87460223 16.5932288,2.13439181 14.535845,1.08547531 L12.6327819,2.98853844 C13.4707573,3.72174112 14,4.79906494 14,6 C14,8.209139 12.209139,10 10,10 C8.79906494,10 7.72174112,9.47075734 6.98853844,8.63278191 L4.97414834,10.647172 Z M2.6250572,8.75362246 C1.88541448,7.94637285 1.2765689,7.01730973 0.832087371,6 C2.37520062,2.46819043 5.89936193,0 10,0 C10.4390254,0 10.871443,0.0282914404 11.295529,0.0831506343 L9.32134378,2.05733587 C7.65601876,2.34194902 6.34194902,3.65601876 6.0573359,5.32134376 L2.6250572,8.75362246 Z" id="Oval-115"></path>
                        <path d="M11.2122171,4.40910326 C11.6910405,4.77451049 12,5.35117457 12,6 C12,7.1045695 11.1045695,8 10,8 C9.35117457,8 8.77451049,7.69104053 8.40910326,7.21221708 L11.2122171,4.40910326 Z" id="Oval-118"></path>
                    </g>
                    <polygon id="Line" points="15.6568542 2.25735931 16.363961 1.55025253 14.9497475 0.136038969 14.2426407 0.843145751 3.63603897 11.4497475 2.92893219 12.1568542 4.34314575 13.5710678 5.05025253 12.863961"></polygon>
                </g>
            </g>
        </g>
    </g>
</svg>