<?xml version="1.0" encoding="UTF-8" standalone="no"?>
<svg width="24px" height="24px" viewBox="0 0 24 24" version="1.1" xmlns="http://www.w3.org/2000/svg" xmlns:xlink="http://www.w3.org/1999/xlink">
    <!-- Generator: Sketch 40.1 (33804) - http://www.bohemiancoding.com/sketch -->
    <title>image-file</title>
    <desc>Created with Sketch.</desc>
    <defs></defs>
    <g id="Page-1" stroke="none" stroke-width="1" fill="none" fill-rule="evenodd">
        <g id="image-file">
            <g id="Rectangle-67-Copy-+-Rectangle-906-Copy-11-Copy-Copy-Copy-Copy-Copy-Copy-Copy-Copy" transform="translate(4.000000, 2.000000)">
                <g id="Rectangle-67-Copy-9" fill="#777777">
                    <path d="M0,1.99079514 C0,0.891309342 0.902306354,0 2.00932295,0 L12.0047363,0 L16,4.00708008 L16,18.0068221 C16,19.1076239 15.1054862,20 14.0059397,20 L1.99406028,20 C0.892771196,20 0,19.1017876 0,18.0092049 L0,1.99079514 Z M11,1 L15,5 L11,5 L11,1 Z" id="Rectangle-67"></path>
                </g>
                <polygon id="Path" fill="#FFFFFF" points="2 18 11 18 14 18 14 10 10 14 8 12"></polygon>
                <path d="M4,7 C2.8954305,7 2,7.8954305 2,9 C2,10.1045695 2.8954305,11 4,11 C5.1045695,11 6,10.1045695 6,9 C6,7.8954305 5.1045695,7 4,7 L4,7 Z" id="Path" fill="#FFFFFF"></path>
            </g>
        </g>
    </g>
</svg>