<?xml version="1.0" encoding="UTF-8" standalone="no"?>
<svg width="24px" height="24px" viewBox="0 0 24 24" version="1.1" xmlns="http://www.w3.org/2000/svg" xmlns:xlink="http://www.w3.org/1999/xlink">
    <!-- Generator: Sketch 40.1 (33804) - http://www.bohemiancoding.com/sketch -->
    <title>import</title>
    <desc>Created with Sketch.</desc>
    <defs></defs>
    <g id="Page-1" stroke="none" stroke-width="1" fill="none" fill-rule="evenodd">
        <g id="import" fill="#777777">
            <g id="Group" transform="translate(3.000000, 3.000000)">
                <g id="Rectangle-130-+-Triangle-30-+-Rectangle-131" transform="translate(4.000000, 0.000000)">
                    <rect id="Rectangle-130" x="3" y="0" width="4" height="11"></rect>
                    <polygon id="Triangle-30" points="0 8 10 8 5 14"></polygon>
                </g>
                <path d="M16,2 L16.0049107,2 C17.1067681,2 18,2.89451376 18,3.99406028 L18,16.0059397 C18,17.1072288 17.1073772,18 16.0049107,18 L1.99508929,18 C0.893231902,18 0,17.107874 0,15.9984416 L0,3.99723157 C0,3.99699354 0,3.99691419 0,3.99691419 C0.000159208411,2.89403155 0.892721116,2 1.99508929,2 L2,2 L2,16 L16,16 L16,2 Z" id="Combined-Shape"></path>
            </g>
        </g>
    </g>
</svg>