<?xml version="1.0" encoding="UTF-8" standalone="no"?>
<svg width="24px" height="24px" viewBox="0 0 24 24" version="1.1" xmlns="http://www.w3.org/2000/svg" xmlns:xlink="http://www.w3.org/1999/xlink">
    <!-- Generator: Sketch 40.1 (33804) - http://www.bohemiancoding.com/sketch -->
    <title>information</title>
    <desc>Created with Sketch.</desc>
    <defs></defs>
    <g id="Page-1" stroke="none" stroke-width="1" fill="none" fill-rule="evenodd">
        <g id="information" fill="#777777">
            <g id="Oval-139-+-Rectangle-906-Copy-6" transform="translate(2.000000, 2.000000)">
                <g id="Oval-139">
                    <path d="M10,20 C15.5228475,20 20,15.5228475 20,10 C20,4.4771525 15.5228475,0 10,0 C4.4771525,0 0,4.4771525 0,10 C0,15.5228475 4.4771525,20 10,20 Z M8,9 L12,9 L12,16 L8,16 L8,9 Z M10,8 C11.1045695,8 12,7.1045695 12,6 C12,4.8954305 11.1045695,4 10,4 C8.8954305,4 8,4.8954305 8,6 C8,7.1045695 8.8954305,8 10,8 Z"></path>
                </g>
            </g>
        </g>
    </g>
</svg>