<svg xmlns="http://www.w3.org/2000/svg" viewBox="0 0 24 24">
  <path fill-rule="evenodd" d="M7.625 6h-.878c-.49 0-.862.084-.963.355l-3.716 10.86c-.034.12-.068.22-.068.305 0 .237.32.372 1.03.372h.676c.405 0 .693-.1.777-.355l.676-2.06h3.985l.676 2.06c.085.27.457.355.947.355h.743c.59 0 .845-.135.845-.372 0-.084-.017-.186-.05-.304L8.587 6.356C8.486 6.083 8.115 6 7.625 6zm-.422 3.16c.067.354.135.725.253 1.08l.963 3.007H5.884l.997-3.007c.135-.355.186-.726.253-1.08h.068zM17.54 6.033h-3.344c-.473 0-.676.202-.676.675V17.18c0 .473.203.676.676.676h3.58c2.856 0 4.224-1.25 4.224-3.43 0-1.3-.93-2.5-2.28-2.77l-.017-.067c1.013-.42 1.824-1.418 1.824-2.566 0-1.774-1.132-2.99-3.986-2.99zm-.22 2.196c1.03 0 1.538.422 1.538 1.25 0 .71-.557 1.267-1.57 1.267H16.12V8.23h1.2zm.187 4.73c1.165 0 1.824.44 1.824 1.317 0 .878-.573 1.368-1.553 1.368h-1.655V12.96h1.385z"/>
</svg>