<?xml version="1.0" encoding="UTF-8" standalone="no"?>
<svg width="24px" height="24px" viewBox="0 0 24 24" version="1.1" xmlns="http://www.w3.org/2000/svg" xmlns:xlink="http://www.w3.org/1999/xlink">
    <!-- Generator: Sketch 40.1 (33804) - http://www.bohemiancoding.com/sketch -->
    <title>letters</title>
    <desc>Created with Sketch.</desc>
    <defs></defs>
    <g id="Page-1" stroke="none" stroke-width="1" fill="none" fill-rule="evenodd">
        <g id="letters" fill="#777777">
            <g id="Group" transform="translate(3.000000, 4.000000)">
                <path d="M0,6.0085302 C0,4.8992496 0.895397998,4 2.00791717,4 L9.05471906,4 L15.9952526,4 C17.102444,4 18,4.90195036 18,6.0085302 L18,13.9914698 C18,15.1007504 17.1073772,16 16.0049107,16 L1.99508929,16 C0.893231902,16 0,15.0980496 0,13.9914698 L0,6.0085302 Z M2,6 L8,6 L8,8 L2,8 L2,6 Z M2,9 L12,9 L12,11 L2,11 L2,9 Z" id="Combined-Shape"></path>
                <path d="M2,1.5 C2,0.671572875 2.6651768,0 3.4982554,0 L9.04863916,0 L14.5072438,0 C15.3316703,0 16,0.665797234 16,1.5 L16,3 L2,3 L2,1.5 Z" id="Rectangle-1092"></path>
            </g>
        </g>
    </g>
</svg>