<?xml version="1.0" encoding="UTF-8" standalone="no"?>
<svg width="24px" height="24px" viewBox="0 0 24 24" version="1.1" xmlns="http://www.w3.org/2000/svg" xmlns:xlink="http://www.w3.org/1999/xlink">
    <!-- Generator: Sketch 40.1 (33804) - http://www.bohemiancoding.com/sketch -->
    <title>letterhead</title>
    <desc>Created with Sketch.</desc>
    <defs></defs>
    <g id="Page-1" stroke="none" stroke-width="1" fill="none" fill-rule="evenodd">
        <g id="letterhead" fill="#777777">
            <g id="Group-3" transform="translate(2.000000, 2.000000)">
                <path d="M18,9 L18,18.0092049 C18,19.1086907 17.1054862,20 16.0059397,20 L3.99406028,20 C2.8927712,20 2,19.1017876 2,18.0092049 L2,9 L3.99803709,9 C3.99925955,13.3074451 4,18.0092049 4,18.0092049 C4,17.9999394 16.0059397,18 16.0059397,18 C16.0040884,18 16.0025003,13.3049357 16.0014332,9 L18,9 Z" id="Combined-Shape"></path>
                <path d="M18,5 L18,1.99079514 C18,0.898212381 17.1072288,0 16.0059397,0 L3.99406028,0 C2.89451376,0 2,0.891309342 2,1.99079514 L2,5 L3.996658,5 C3.99588377,3.22625274 3.99500639,2 3.99406028,2 C3.99406028,2 16,2.00006055 16,1.99079514 C16,1.99079514 16.0001938,3.22129171 16.0005467,5 L18,5 Z" id="Combined-Shape"></path>
                <rect id="Rectangle-1146" x="0" y="6" width="2" height="2"></rect>
                <rect id="Rectangle-1146" x="3" y="6" width="2" height="2"></rect>
                <rect id="Rectangle-1146" x="6" y="6" width="2" height="2"></rect>
                <rect id="Rectangle-1146" x="9" y="6" width="2" height="2"></rect>
                <rect id="Rectangle-1146" x="12" y="6" width="2" height="2"></rect>
                <rect id="Rectangle-1146" x="15" y="6" width="2" height="2"></rect>
                <rect id="Rectangle-1146" x="18" y="6" width="2" height="2"></rect>
            </g>
        </g>
    </g>
</svg>