<?xml version="1.0" encoding="UTF-8" standalone="no"?>
<svg width="24px" height="24px" viewBox="0 0 24 24" version="1.1" xmlns="http://www.w3.org/2000/svg" xmlns:xlink="http://www.w3.org/1999/xlink">
    <!-- Generator: Sketch 40.1 (33804) - http://www.bohemiancoding.com/sketch -->
    <title>license</title>
    <desc>Created with Sketch.</desc>
    <defs></defs>
    <g id="Page-1" stroke="none" stroke-width="1" fill="none" fill-rule="evenodd">
        <g id="license" fill="#777777">
            <g id="Star-2-+-Rectangle-906-Copy-9" transform="translate(2.000000, 2.000000)">
                <path d="M8.13635525,13.9435859 L7.78280186,13.5900325 L5.2332921,11.0405228 L4.52618532,10.333416 L5.94039888,8.91920242 L6.64750566,9.6263092 L8.54039887,11.5192024 L13.3524943,6.70710679 L14.0596011,6 L15.4738147,7.41421354 L14.7667079,8.12132033 L9.24750568,13.6405227 L8.54039891,14.3476295 L8.13635526,13.9435859 Z M10,18 L7.41180955,19.6592583 L6,16.9282032 L2.92893219,17.0710678 L3.07179677,14 L0.340741737,12.5881905 L2,10 L0.340741737,7.41180955 L3.07179677,6 L2.92893219,2.92893219 L6,3.07179677 L7.41180955,0.340741737 L10,2 L12.5881905,0.340741737 L14,3.07179677 L17.0710678,2.92893219 L16.9282032,6 L19.6592583,7.41180955 L18,10 L19.6592583,12.5881905 L16.9282032,14 L17.0710678,17.0710678 L14,16.9282032 L12.5881905,19.6592583 L10,18 Z" id="Star-2"></path>
            </g>
        </g>
    </g>
</svg>