<svg viewBox="0 0 24 24" xmlns="http://www.w3.org/2000/svg">
  <path d="M18.16 6.41c-1.27-1.27-3.335-1.27-4.605 0l-2.972 2.972-1.41-1.412L12.143 5c2.05-2.052 5.38-2.052 7.43 0 2.05 2.05 2.05 5.377 0 7.428l-2.973 2.97-1.41-1.41 2.97-2.972c1.27-1.27 1.27-3.335 0-4.606zm-2.3 3.79l-5.945 5.94-1.485-1.484 5.942-5.943 1.486 1.486zM4.714 12.427l2.972-2.972 1.412 1.412-2.972 2.97c-1.27 1.272-1.27 3.337 0 4.607s3.336 1.27 4.606 0l2.97-2.97 1.413 1.41-2.972 2.972c-2.05 2.05-5.378 2.05-7.43 0-2.05-2.05-2.05-5.38 0-7.43z" fill="#777" fill-rule="evenodd"/>
</svg>
