<?xml version="1.0" encoding="UTF-8" standalone="no"?>
<svg width="24px" height="24px" viewBox="0 0 24 24" version="1.1" xmlns="http://www.w3.org/2000/svg" xmlns:xlink="http://www.w3.org/1999/xlink">
    <!-- Generator: Sketch 40.1 (33804) - http://www.bohemiancoding.com/sketch -->
    <title>lock</title>
    <desc>Created with Sketch.</desc>
    <defs></defs>
    <g id="Page-1" stroke="none" stroke-width="1" fill="none" fill-rule="evenodd">
        <g id="lock" fill="#777777">
            <g id="Rectangle-240-+-Rectangle-241-+-Rectangle-906-Copy-7" transform="translate(4.000000, 2.000000)">
                <g id="Rectangle-240-+-Rectangle-241">
                    <path d="M2,8 L1.99406028,8 C0.894513756,8 0,8.8992496 0,10.0085302 L0,17.9914698 C0,19.0980496 0.892771196,20 1.99406028,20 L14.0059397,20 C15.1054862,20 16,19.1007504 16,17.9914698 L16,10.0085302 C16,8.90195036 15.1072288,8 14.0059397,8 L14,8 L14,5 C14,2.24419519 11.7604449,0 8.99781374,0 L7.00218626,0 C4.22898489,0 2,2.23857625 2,5 L2,8 Z M8,14 C9.1045695,14 10,13.1045695 10,12 C10,10.8954305 9.1045695,10 8,10 C6.8954305,10 6,10.8954305 6,12 C6,13.1045695 6.8954305,14 8,14 Z M4,5 C4,3.34314575 5.33902013,2 7.00166547,2 L8.99833453,2 C10.6561086,2 12,3.34651712 12,5 L12,8 L4,8 L4,5 Z" id="Rectangle-240"></path>
                </g>
            </g>
        </g>
    </g>
</svg>