<?xml version="1.0" encoding="UTF-8" standalone="no"?>
<svg width="24px" height="24px" viewBox="0 0 24 24" version="1.1" xmlns="http://www.w3.org/2000/svg" xmlns:xlink="http://www.w3.org/1999/xlink">
    <!-- Generator: Sketch 40.1 (33804) - http://www.bohemiancoding.com/sketch -->
    <title>log-out</title>
    <desc>Created with Sketch.</desc>
    <defs></defs>
    <g id="Page-1" stroke="none" stroke-width="1" fill="none" fill-rule="evenodd">
        <g id="log-out" fill="#777777">
            <g id="Group" transform="translate(12.000000, 12.000000) rotate(-90.000000) translate(-12.000000, -12.000000) translate(3.000000, 3.000000)">
                <g id="Rectangle-130-+-Triangle-30-+-Rectangle-131" transform="translate(4.000000, 4.000000)">
                    <rect id="Rectangle-130" x="3" y="0" width="4" height="11"></rect>
                    <polygon id="Triangle-30" points="0 8 10 8 5 14"></polygon>
                </g>
                <path d="M16,0 L16.0049107,0 C17.1067681,0 18,0.894513756 18,1.99406028 L18,14.0059397 C18,15.1072288 17.1073772,16 16.0049107,16 L1.99508929,16 C0.893231902,16 0,15.107874 0,13.9984416 L0,1.99723157 C0,1.99699354 0,1.99691419 0,1.99691419 C0.000159208411,0.894031551 0.892721116,0 1.99508929,0 L2,0 L2,14 L16,14 L16,3.33066907e-16 Z" id="Combined-Shape" transform="translate(9.000000, 8.000000) rotate(-180.000000) translate(-9.000000, -8.000000) "></path>
            </g>
        </g>
    </g>
</svg>