<?xml version="1.0" encoding="UTF-8" standalone="no"?>
<svg width="24px" height="24px" viewBox="0 0 24 24" version="1.1" xmlns="http://www.w3.org/2000/svg" xmlns:xlink="http://www.w3.org/1999/xlink">
    <!-- Generator: Sketch 40.1 (33804) - http://www.bohemiancoding.com/sketch -->
    <title>megaphone</title>
    <desc>Created with Sketch.</desc>
    <defs></defs>
    <g id="Page-1" stroke="none" stroke-width="1" fill="none" fill-rule="evenodd">
        <g id="megaphone" fill="#777777">
            <g id="Rectangle-757-+-Shape-+-Rectangle-906-Copy-10" transform="translate(2.000000, 5.000000)">
                <g id="Rectangle-757-+-Shape">
                    <path d="M2,4.45017627 L0,4.8751884 L0,6.75198544 L0,9.12530971 L2,9.55032184 L2,4.45017627 Z M3,4.23767021 L19.0218196,0.832936367 C19.5620537,0.718133336 20,1.07885929 20,1.62556676 L20,12.3749314 C20,12.9274921 19.5636716,13.2827086 19.0218196,13.1675617 L3,9.76282791 L3,4.23767021 Z" id="Rectangle-757"></path>
                    <path d="M6,9.00591905 L6,9.00591905 L6,11.9940809 C6,12.0030535 5.99693398,12 6.00617403,12 L6.71409181,12 L10.9981388,12 C10.9982819,12 11,11.9982784 11,11.9940809 L11,9.00591905 C11,8.99497815 11.0050204,9 11.0026083,9 L5.9973917,9 C6.00154025,9 6,9.00154597 6,9.00591905 L6,9.00591905 Z M4,9.00591905 C4,7.89808055 4.89585781,7 5.9973917,7 L11.0026083,7 C12.1057373,7 13,7.88655484 13,9.00591905 L13,11.9940809 C13,13.1019194 12.1037819,14 10.9981388,14 L6.71409181,14 L6.00617403,14 C4.89819471,14 4,13.1134452 4,11.9940809 L4,9.00591905 L4,9.00591905 Z" id="Shape"></path>
                </g>
            </g>
        </g>
    </g>
</svg>