<svg xmlns="http://www.w3.org/2000/svg" viewBox="0 0 24 24">
  <g fill-rule="evenodd">
    <path d="M4 9.45l-2 .425v4.25l2 .425v-5.1zm1-.212l16.022-3.405c.54-.115.978.246.978.793v10.75c0 .55-.436.907-.978.792L5 14.763V9.238z"/>
    <path d="M8 14.006v2.988c0 .01-.003.006.006.006h4.992s.002-.002.002-.006v-2.988c0-.01.005-.006.003-.006H7.997c.005 0 .003.002.003.006zm-2 0C6 12.898 6.896 12 7.997 12h5.006c1.103 0 1.997.887 1.997 2.006v2.988C15 18.102 14.104 19 12.998 19H8.006C6.898 19 6 18.113 6 16.994v-2.988z"/>
  </g>
</svg>