<?xml version="1.0" encoding="UTF-8"?>
<svg width="24px" height="24px" viewBox="0 0 24 24" version="1.1" xmlns="http://www.w3.org/2000/svg" xmlns:xlink="http://www.w3.org/1999/xlink">
    <!-- Generator: Sketch 41.2 (35397) - http://www.bohemiancoding.com/sketch -->
    <title>message-remove</title>
    <desc>Created with Sketch.</desc>
    <defs></defs>
    <g id="Page-1" stroke="none" stroke-width="1" fill="none" fill-rule="evenodd">
        <g id="message-remove">
            <g id="Group-2" transform="translate(2.000000, 4.000000)">
                <g id="Rectangle-646-+-Rectangle-906-Copy-7" fill="#777777">
                    <path d="M16,6 L16,2 C16,0.900071144 15.1072288,0 14.0059397,0 L1.99406028,0 C0.894513756,0 0,0.8954305 0,2 L0,10.8 C0,11.8999289 0.892771196,12.8 1.99406028,12.8 L10.0528685,12.8 C10.0179993,12.5382901 10,12.271247 10,12 C10,8.6862915 12.6862915,6 16,6 Z M1.63291016,1.60849609 L1.63291016,3.2358499 L8.00017578,7.24150391 L14.4031738,3.17104492 L14.4031738,1.60648157 L8.00017586,5.62500002 L1.63291016,1.60849609 Z" id="Combined-Shape"></path>
                </g>
                <g id="Group-+-Oval-167-+-Rectangle-906-Copy-11" transform="translate(12.000000, 8.000000)">
                    <g id="Group" transform="translate(2.800000, 2.000000)"></g>
                    <path d="M4,8 C6.209139,8 8,6.209139 8,4 C8,1.790861 6.209139,0 4,0 C1.790861,0 0,1.790861 0,4 C0,6.209139 1.790861,8 4,8 Z M1.6,3.2 L6.4,3.2 L6.4,4.8 L1.6,4.8 L1.6,3.2 Z" id="Oval-167" fill="#777777"></path>
                </g>
            </g>
        </g>
    </g>
</svg>