<?xml version="1.0" encoding="UTF-8" standalone="no"?>
<svg width="24px" height="24px" viewBox="0 0 24 24" version="1.1" xmlns="http://www.w3.org/2000/svg" xmlns:xlink="http://www.w3.org/1999/xlink">
    <!-- Generator: Sketch 40.1 (33804) - http://www.bohemiancoding.com/sketch -->
    <title>move-file</title>
    <desc>Created with Sketch.</desc>
    <defs></defs>
    <g id="Page-1" stroke="none" stroke-width="1" fill="none" fill-rule="evenodd">
        <g id="move-file">
            <g transform="translate(4.000000, 2.000000)" id="files">
                <g>
                    <g id="Page-1">
                        <g id="files">
                            <g id="Rectangle-67-+-Rectangle-906-Copy-4" fill="#777777">
                                <g id="Rectangle-67">
                                    <path d="M0,1.99079514 C0,0.891309342 0.902306354,0 2.00932295,0 L12.0047363,0 L16,4.00708008 L16,18.0068221 C16,19.1076239 15.1054862,20 14.0059397,20 L1.99406028,20 C0.892771196,20 0,19.1017876 0,18.0092049 L0,1.99079514 L0,1.99079514 Z M11,1 L15,5 L11,5 L11,1 L11,1 Z" id="Shape"></path>
                                </g>
                            </g>
                            <polygon id="Rectangle-156-path" fill="#FFFFFF" points="4 9 9 9 9 13 4 13"></polygon>
                            <polygon id="Rectangle-156-path" fill="#FFFFFF" points="8 15 8 7 12 11"></polygon>
                        </g>
                    </g>
                </g>
            </g>
        </g>
    </g>
</svg>