<?xml version="1.0" encoding="UTF-8" standalone="no"?>
<svg width="24px" height="24px" viewBox="0 0 24 24" version="1.1" xmlns="http://www.w3.org/2000/svg" xmlns:xlink="http://www.w3.org/1999/xlink">
    <!-- Generator: Sketch 40.1 (33804) - http://www.bohemiancoding.com/sketch -->
    <title>move</title>
    <desc>Created with Sketch.</desc>
    <defs></defs>
    <g id="Page-1" stroke="none" stroke-width="1" fill="none" fill-rule="evenodd">
        <g id="move" fill="#777777">
            <g id="Rectangle-156-+-Rectangle-906-Copy-7" transform="translate(2.000000, 4.000000)">
                <path d="M0,1.99406028 C0,0.892771196 0.895967061,0 2.00829233,0 L7.0743164,0 L9.77929688,3.02441405 L18.0050825,3.08524687 C19.106845,3.09339482 20,3.98666929 20,5.10147115 L20,13.9985289 C20,15.1039109 19.1017876,16 18.0092049,16 L1.99079514,16 C0.891309342,16 0,15.1054862 0,14.0059397 L0,1.99406028 Z M6,12 L6,8 L10,8 L10,12 L6,12 Z M10,14 L10,6 L14,10 L10,14 Z" id="Rectangle-156"></path>
            </g>
        </g>
    </g>
</svg>