<?xml version="1.0" encoding="UTF-8" standalone="no"?>
<svg width="24px" height="24px" viewBox="0 0 24 24" version="1.1" xmlns="http://www.w3.org/2000/svg" xmlns:xlink="http://www.w3.org/1999/xlink">
    <!-- Generator: Sketch 40.1 (33804) - http://www.bohemiancoding.com/sketch -->
    <title>new-folder</title>
    <desc>Created with Sketch.</desc>
    <defs></defs>
    <g id="Page-1" stroke="none" stroke-width="1" fill="none" fill-rule="evenodd">
        <g id="new-folder" fill="#777777">
            <g id="Group-2" transform="translate(2.000000, 4.000000)">
                <g id="New-Folder-Icon">
                    <g id="ic_create_new_folder_black_24px-(1)">
                        <g id="Group">
                            <path d="M18,2 L10,2 L8,0 L2,0 C0.89,0 0.01,0.89 0.01,2 L0,14 C0,15.11 0.89,16 2,16 L18,16 C19.11,16 20,15.11 20,14 L20,4 C20,2.89 19.11,2 18,2 L18,2 Z M17,10 L14,10 L14,13 L12,13 L12,10 L9,10 L9,8 L12,8 L12,5 L14,5 L14,8 L17,8 L17,10 L17,10 Z" id="Shape"></path>
                        </g>
                    </g>
                </g>
            </g>
        </g>
    </g>
</svg>