<?xml version="1.0" encoding="UTF-8"?>
<svg width="24px" height="24px" viewBox="0 0 24 24" version="1.1" xmlns="http://www.w3.org/2000/svg" xmlns:xlink="http://www.w3.org/1999/xlink">
    <!-- Generator: Sketch 49.1 (51147) - http://www.bohemiancoding.com/sketch -->
    <title>Notices Icon</title>
    <desc>Created with Sketch.</desc>
    <defs></defs>
    <g id="Notices-Icon" stroke="none" stroke-width="1" fill="none" fill-rule="evenodd">
        <path d="M18,12.9534836 L18,3.99908613 L6,3.99908613 L6,12.9483751 L12,15.9971568 L18,12.9534836 Z M20,9.99634452 L21.4490281,10.7242059 C21.7868144,10.8938794 22,11.239447 22,11.6173153 L22,20.9963953 C22,21.5484277 21.5522847,21.9959384 21,22 L3,22 C2.44771525,21.9959384 2,21.5484277 2,20.9963953 L2,11.6201076 C2,11.2407836 2.21481426,10.8941464 2.5545881,10.725191 L4,10.0064476 L4,3.99908613 C4,2.89502135 4.8954305,2 6,2 L18,2 C19.1045695,2 20,2.89502135 20,3.99908613 L20,9.99634452 Z M4,19.9963445 L20,19.9963445 L20,14.1735096 L12.4320185,17.7902868 C12.1588557,17.9208327 11.8412573,17.9205966 11.568289,17.7896447 L4,14.1588882 L4,19.9963445 Z M8,5.99817226 L16,5.99817226 L16,7.99725839 L8,7.99725839 L8,5.99817226 Z M8,9.99634452 L16,9.99634452 L16,11.9954306 L8,11.9954306 L8,9.99634452 Z" id="Combined-Shape-Copy-4" fill="#777777" fill-rule="nonzero"></path>
    </g>
</svg>