<?xml version="1.0" encoding="UTF-8" standalone="no"?>
<svg width="24px" height="24px" viewBox="0 0 24 24" version="1.1" xmlns="http://www.w3.org/2000/svg" xmlns:xlink="http://www.w3.org/1999/xlink">
    <!-- Generator: Sketch 40.1 (33804) - http://www.bohemiancoding.com/sketch -->
    <title>notifications</title>
    <desc>Created with Sketch.</desc>
    <defs></defs>
    <g id="Page-1" stroke="none" stroke-width="1" fill="none" fill-rule="evenodd">
        <g id="notifications" fill="#777777">
            <path d="M15.3220854,20.33256 L11.6930948,18.939521 C11.310009,19.9374934 11.8040257,21.0639675 12.8110706,21.4505358 C13.809043,21.8336215 14.9389997,21.3305324 15.3220854,20.33256 Z M19.4875451,11.8987723 C20.5567025,9.11352198 19.9638439,6.21074954 17.6059322,4.59779826 L17.8427489,3.98086986 C18.1318044,3.22785431 17.7572826,2.38666435 17.004267,2.09760877 C16.2512514,1.80855318 15.4100615,2.18307508 15.1210059,2.93609063 L14.8841893,3.55301903 C12.0435719,3.17044197 9.67321327,4.92533257 8.60057326,7.71965534 L6.85927454,12.2558936 L4.34825974,13.3738694 L4,14.2811171 L18.5159624,19.853273 L18.8642222,18.9460253 L17.7462464,16.4350105 L19.4875451,11.8987723 Z" id="Shape"></path>
        </g>
    </g>
</svg>