<svg xmlns="http://www.w3.org/2000/svg" viewBox="0 0 24 24">
  <g fill-rule="evenodd">
    <path d="M8 5h14v2H8zM8 11h14v2H8zM8 17h14v2H8zM5.067 16.675c0 .267-.08.495-.243.682-.162.188-.39.317-.682.387v.018c.345.043.607.148.785.315.177.167.266.392.266.675 0 .412-.15.733-.448.962-.3.23-.725.345-1.28.345-.465 0-.877-.08-1.236-.233v-.77c.165.084.347.152.546.205.2.052.397.08.592.08.3 0 .52-.052.662-.154.143-.1.214-.264.214-.49 0-.2-.082-.343-.246-.427-.164-.083-.426-.124-.785-.124h-.325v-.695h.33c.333 0 .575-.042.73-.13.152-.086.23-.235.23-.446 0-.324-.204-.486-.61-.486-.14 0-.284.023-.43.07-.145.047-.307.128-.485.243l-.42-.623c.392-.28.858-.422 1.4-.422.442 0 .792.09 1.05.27.256.18.384.43.384.75zM5.234 14H2.24v-.63l1.075-1.087c.32-.326.527-.552.624-.678.097-.126.167-.243.21-.35.043-.108.065-.22.065-.334 0-.17-.048-.3-.142-.383-.095-.084-.22-.126-.38-.126-.166 0-.327.04-.483.115-.156.077-.32.185-.49.326l-.49-.582c.21-.18.384-.307.523-.38.14-.076.29-.133.454-.173.164-.04.348-.06.55-.06.268 0 .505.05.71.147.205.097.364.234.477.41.114.176.17.377.17.603 0 .198-.034.383-.104.556-.07.173-.177.35-.322.532-.146.182-.402.44-.77.777l-.55.517v.04h1.866V14zM4.48 8h-.907V5.52l.01-.406.014-.445c-.15.15-.255.248-.314.295l-.492.395-.436-.545 1.38-1.098h.745V8z"/>
  </g>
</svg>