<?xml version="1.0" encoding="UTF-8" standalone="no"?>
<svg width="24px" height="24px" viewBox="0 0 24 24" version="1.1" xmlns="http://www.w3.org/2000/svg" xmlns:xlink="http://www.w3.org/1999/xlink">
    <!-- Generator: Sketch 40.1 (33804) - http://www.bohemiancoding.com/sketch -->
    <title>number</title>
    <desc>Created with Sketch.</desc>
    <defs></defs>
    <g id="Page-1" stroke="none" stroke-width="1" fill="none" fill-rule="evenodd">
        <g id="number" fill="#777777">
            <g id="Group-+-Rectangle-906-Copy-6" transform="translate(2.000000, 3.000000)">
                <g id="Group">
                    <rect id="Rectangle-267" x="6" y="2" width="14" height="2"></rect>
                    <rect id="Rectangle-268" x="6" y="8" width="14" height="2"></rect>
                    <rect id="Rectangle-269" x="6" y="14" width="14" height="2"></rect>
                    <path d="M3.06738281,13.6748047 C3.06738281,13.9423842 2.98632894,14.1699209 2.82421875,14.3574219 C2.66210856,14.5449228 2.43457178,14.6738278 2.14160156,14.7441406 L2.14160156,14.7617188 C2.48730642,14.8046877 2.74902255,14.9096671 2.92675781,15.0766602 C3.10449308,15.2436532 3.19335938,15.4687486 3.19335938,15.7519531 C3.19335938,16.1640646 3.04394681,16.4848621 2.74511719,16.7143555 C2.44628757,16.9438488 2.01953402,17.0585938 1.46484375,17.0585938 C0.999997676,17.0585938 0.587892422,16.9814461 0.228515625,16.8271484 L0.228515625,16.0566406 C0.39453208,16.1406254 0.577147441,16.2089841 0.776367188,16.2617188 C0.975586934,16.3144534 1.17285059,16.3408203 1.36816406,16.3408203 C1.66699368,16.3408203 1.8876946,16.2900396 2.03027344,16.1884766 C2.17285228,16.0869136 2.24414062,15.9238292 2.24414062,15.6992188 C2.24414062,15.4980459 2.1621102,15.3554692 1.99804688,15.2714844 C1.83398355,15.1874996 1.57226742,15.1455078 1.21289062,15.1455078 L0.887695312,15.1455078 L0.887695312,14.4511719 L1.21875,14.4511719 C1.55078291,14.4511719 1.79345626,14.4077153 1.94677734,14.3208008 C2.10009842,14.2338863 2.17675781,14.084962 2.17675781,13.8740234 C2.17675781,13.5498031 1.97363484,13.3876953 1.56738281,13.3876953 C1.42675711,13.3876953 1.28369213,13.4111326 1.13818359,13.4580078 C0.992675054,13.504883 0.831055576,13.5859369 0.653320312,13.7011719 L0.234375,13.0771484 C0.625001953,12.795897 1.09081761,12.6552734 1.63183594,12.6552734 C2.07519753,12.6552734 2.42529168,12.7451163 2.68212891,12.9248047 C2.93896613,13.1044931 3.06738281,13.3544906 3.06738281,13.6748047 L3.06738281,13.6748047 Z" id="3"></path>
                    <path d="M3.234375,11 L0.240234375,11 L0.240234375,10.3701172 L1.31542969,9.28320312 C1.63379065,8.95702962 1.84179639,8.73095766 1.93945312,8.60498047 C2.03710986,8.47900328 2.10742166,8.36230522 2.15039062,8.25488281 C2.19335959,8.1474604 2.21484375,8.03613339 2.21484375,7.92089844 C2.21484375,7.74902258 2.16748094,7.62109417 2.07275391,7.53710938 C1.97802687,7.45312458 1.85156329,7.41113281 1.69335938,7.41113281 C1.52734292,7.41113281 1.36621172,7.44921837 1.20996094,7.52539062 C1.05371016,7.60156288 0.89062585,7.70996023 0.720703125,7.85058594 L0.228515625,7.26757812 C0.43945418,7.08788973 0.614257119,6.96093787 0.752929688,6.88671875 C0.891602256,6.81249963 1.04296793,6.75537129 1.20703125,6.71533203 C1.37109457,6.67529277 1.55468648,6.65527344 1.7578125,6.65527344 C2.02539196,6.65527344 2.26171772,6.70410107 2.46679688,6.80175781 C2.67187603,6.89941455 2.83105412,7.03613193 2.94433594,7.21191406 C3.05761775,7.38769619 3.11425781,7.58886605 3.11425781,7.81542969 C3.11425781,8.0126963 3.07959019,8.19775304 3.01025391,8.37060547 C2.94091762,8.5434579 2.83349682,8.72070222 2.68798828,8.90234375 C2.54247974,9.08398528 2.28613465,9.34277176 1.91894531,9.67871094 L1.36816406,10.1972656 L1.36816406,10.2382812 L3.234375,10.2382812 L3.234375,11 Z" id="2"></path>
                    <path d="M2.47851562,5 L1.57324219,5 L1.57324219,2.52148438 L1.58203125,2.11425781 L1.59667969,1.66894531 C1.44628831,1.81933669 1.34179717,1.91796852 1.28320312,1.96484375 L0.791015625,2.36035156 L0.354492188,1.81542969 L1.734375,0.716796875 L2.47851562,0.716796875 L2.47851562,5 Z" id="1"></path>
                </g>
            </g>
        </g>
    </g>
</svg>