<?xml version="1.0" encoding="UTF-8" standalone="no"?>
<svg width="24px" height="24px" viewBox="0 0 24 24" version="1.1" xmlns="http://www.w3.org/2000/svg" xmlns:xlink="http://www.w3.org/1999/xlink">
    <!-- Generator: Sketch 40.1 (33804) - http://www.bohemiancoding.com/sketch -->
    <title>outgoing-phone-call</title>
    <desc>Created with Sketch.</desc>
    <defs></defs>
    <g id="Page-1" stroke="none" stroke-width="1" fill="none" fill-rule="evenodd">
        <g id="outgoing-phone-call" fill="#777777">
            <g id="Group" transform="translate(3.000000, 1.000000)">
                <g id="call-+-Rectangle-906-Copy-5" transform="translate(0.000000, 2.000000)">
                    <g id="call">
                        <path d="M10.2,14.4 L12.4,12.2 C12.7,11.9 18,13 18,13.6 L18,17 C18,17.6 17.6,18 17,18 C7.6,18 0,10.4 0,1 C0,0.4 0.4,0 1,0 L4.5,0 C5.1,0 6.1,5.3 5.9,5.6 L3.6,7.8 C5,10.6 7.4,12.9 10.2,14.4 Z" id="Shape"></path>
                    </g>
                </g>
                <polygon id="Shape" transform="translate(12.428550, 7.428550) rotate(-135.000000) translate(-12.428550, -7.428550) " points="13.9396607 1.46743846 10.9174385 1.46743846 10.9174385 8.44521623 7.88410513 8.44521623 12.5285496 13.3896607 16.972994 8.44521623 13.9396607 8.44521623"></polygon>
            </g>
        </g>
    </g>
</svg>