<?xml version="1.0" encoding="UTF-8" standalone="no"?>
<svg width="24px" height="24px" viewBox="0 0 24 24" version="1.1" xmlns="http://www.w3.org/2000/svg" xmlns:xlink="http://www.w3.org/1999/xlink">
    <!-- Generator: Sketch 39.1 (31720) - http://www.bohemiancoding.com/sketch -->
    <title>page-break</title>
    <desc>Created with Sketch.</desc>
    <defs></defs>
    <g id="Page-1" stroke="none" stroke-width="1" fill="none" fill-rule="evenodd">
        <g id="page-break" fill="#777777">
            <g transform="translate(2.000000, 2.000000)">
                <path d="M18,12 L18,17.9907951 C18,19.0902809 17.1054862,19.9815903 16.0059397,19.9815903 L3.99406028,19.9815903 C2.8927712,19.9815903 2,19.0833779 2,17.9907951 L2,12 L3.99881162,12 C3.99956509,15.2292194 4,17.9907951 4,17.9907951 C4,17.9815297 16.0059397,17.9815903 16.0059397,17.9815903 C16.0045213,17.9815903 16.0032573,15.2252607 16.0022638,12 L18,12 Z" id="Combined-Shape" transform="translate(10.000000, 15.990795) scale(1, -1) translate(-10.000000, -15.990795) "></path>
                <path d="M18,0.0184097291 L18,6.00920486 C18,7.10869066 17.1054862,8 16.0059397,8 L3.99406028,8 C2.8927712,8 2,7.10178762 2,6.00920486 L2,0.0184097291 L3.99881162,0.0184097291 C3.99956509,3.24762913 4,6.00920486 4,6.00920486 C4,5.99993945 16.0059397,6 16.0059397,6 C16.0045213,6 16.0032573,3.2436704 16.0022638,0.0184097291 L18,0.0184097291 Z" id="Combined-Shape"></path>
                <polygon id="Triangle" transform="translate(1.500000, 10.000000) rotate(90.000000) translate(-1.500000, -10.000000) " points="1.5 8.5 3.5 11.5 -0.5 11.5"></polygon>
            </g>
        </g>
    </g>
</svg>