<svg xmlns="http://www.w3.org/2000/svg" viewBox="0 0 24 24">
  <path fill-rule="evenodd" d="M12 2C6.5 2 2 6.5 2 12s4.5 10 10 10c.945 0 1.667-.722 1.667-1.667 0-.444-.167-.833-.445-1.11-.277-.28-.444-.668-.444-1.112 0-.943.722-1.666 1.667-1.666h2c3.055 0 5.555-2.5 5.555-5.555C22 6 17.5 2 12 2zM5.5 12c.828 0 1.5-.672 1.5-1.5S6.328 9 5.5 9 4 9.672 4 10.5 4.672 12 5.5 12zm3-4c.828 0 1.5-.672 1.5-1.5S9.328 5 8.5 5 7 5.672 7 6.5 7.672 8 8.5 8zm5-1c.828 0 1.5-.672 1.5-1.5S14.328 4 13.5 4 12 4.672 12 5.5 12.672 7 13.5 7zm4 3c.828 0 1.5-.672 1.5-1.5S18.328 7 17.5 7 16 7.672 16 8.5s.672 1.5 1.5 1.5z"/>
</svg>