<?xml version="1.0" encoding="UTF-8" standalone="no"?>
<svg width="24px" height="24px" viewBox="0 0 24 24" version="1.1" xmlns="http://www.w3.org/2000/svg" xmlns:xlink="http://www.w3.org/1999/xlink">
    <!-- Generator: Sketch 40.1 (33804) - http://www.bohemiancoding.com/sketch -->
    <title>pending</title>
    <desc>Created with Sketch.</desc>
    <defs></defs>
    <g id="Page-1" stroke="none" stroke-width="1" fill="none" fill-rule="evenodd">
        <g id="pending" fill="#777777">
            <g id="Oval-139-+-Rectangle-906-Copy-6" transform="translate(2.000000, 2.000000)">
                <path d="M10,20 C15.5228475,20 20,15.5228475 20,10 C20,4.4771525 15.5228475,0 10,0 C4.4771525,0 0,4.4771525 0,10 C0,15.5228475 4.4771525,20 10,20 Z M2,10 C2,11.1045695 2.8954305,12 4,12 C5.1045695,12 6,11.1045695 6,10 C6,8.8954305 5.1045695,8 4,8 C2.8954305,8 2,8.8954305 2,10 Z M8,10 C8,11.1045695 8.8954305,12 10,12 C11.1045695,12 12,11.1045695 12,10 C12,8.8954305 11.1045695,8 10,8 C8.8954305,8 8,8.8954305 8,10 Z M14,10 C14,11.1045695 14.8954305,12 16,12 C17.1045695,12 18,11.1045695 18,10 C18,8.8954305 17.1045695,8 16,8 C14.8954305,8 14,8.8954305 14,10 Z" id="Oval-139"></path>
            </g>
        </g>
    </g>
</svg>