<?xml version="1.0" encoding="UTF-8" standalone="no"?>
<svg width="24px" height="24px" viewBox="0 0 24 24" version="1.1" xmlns="http://www.w3.org/2000/svg" xmlns:xlink="http://www.w3.org/1999/xlink">
    <!-- Generator: Sketch 40.1 (33804) - http://www.bohemiancoding.com/sketch -->
    <title>print</title>
    <desc>Created with Sketch.</desc>
    <defs></defs>
    <g id="Page-1" stroke="none" stroke-width="1" fill="none" fill-rule="evenodd">
        <g id="print" fill="#777777">
            <g id="Rectangle-139-+-Rectangle-140-+-Rectangle-241-+-Rectangle-906-Copy-4" transform="translate(3.000000, 3.000000)">
                <g id="Rectangle-139-+-Rectangle-140-+-Rectangle-241">
                    <path d="M0,6.99810135 C0,5.89458045 0.892622799,5 1.99508929,5 L16.0049107,5 C17.1067681,5 18,5.88670635 18,6.99810135 L18,13 L14.9443115,13 L14.9443115,11 L3.04101562,11 L3.04101562,13 L0,13 L0,6.99810135 Z M3,9 C3.55228475,9 4,8.55228475 4,8 C4,7.44771525 3.55228475,7 3,7 C2.44771525,7 2,7.44771525 2,8 C2,8.55228475 2.44771525,9 3,9 Z M6,9 C6.55228475,9 7,8.55228475 7,8 C7,7.44771525 6.55228475,7 6,7 C5.44771525,7 5,7.44771525 5,8 C5,8.55228475 5.44771525,9 6,9 Z" id="Rectangle-139"></path>
                    <rect id="Rectangle-140" x="3" y="0" width="12" height="4"></rect>
                    <path d="M15,17 L15,18 L3,18 L3,17 L3,10 L5,10 L5,16 L13,16 L13,9 L15,9 L15,17 Z" id="Rectangle-241"></path>
                </g>
            </g>
        </g>
    </g>
</svg>