<?xml version="1.0" encoding="UTF-8" standalone="no"?>
<svg width="24px" height="24px" viewBox="0 0 24 24" version="1.1" xmlns="http://www.w3.org/2000/svg" xmlns:xlink="http://www.w3.org/1999/xlink">
    <!-- Generator: Sketch 40.1 (33804) - http://www.bohemiancoding.com/sketch -->
    <title>recent</title>
    <desc>Created with Sketch.</desc>
    <defs></defs>
    <g id="Page-1" stroke="none" stroke-width="1" fill="none" fill-rule="evenodd">
        <g id="recent" fill="#777777">
            <g id="Shape-+-Rectangle-698-+-Rectangle-906-Copy-9" transform="translate(2.000000, 2.000000)">
                <g id="Shape-+-Rectangle-698">
                    <path d="M10,20 C15.5228475,20 20,15.5228475 20,10 C20,4.4771525 15.5228475,0 10,0 C4.4771525,0 0,4.4771525 0,10 C0,15.5228475 4.4771525,20 10,20 L10,20 Z M10,18 C5.581722,18 2,14.418278 2,10 C2,5.581722 5.581722,2 10,2 C14.418278,2 18,5.581722 18,10 C18,14.418278 14.418278,18 10,18 L10,18 Z" id="Shape"></path>
                    <path d="M10.9454025,10.2356347 L10.5,4 L9.50000001,4 L9,11 L9.01421356,11 L9,11.0142136 L13.3033009,14.6104076 L14.0104076,13.9033009 L10.9454025,10.2356347 Z" id="Rectangle-698"></path>
                </g>
            </g>
        </g>
    </g>
</svg>