<?xml version="1.0" encoding="UTF-8" standalone="no"?>
<svg width="24px" height="24px" viewBox="0 0 24 24" version="1.1" xmlns="http://www.w3.org/2000/svg" xmlns:xlink="http://www.w3.org/1999/xlink">
    <!-- Generator: Sketch 40.1 (33804) - http://www.bohemiancoding.com/sketch -->
    <title>refresh</title>
    <desc>Created with Sketch.</desc>
    <defs></defs>
    <g id="Page-1" stroke="none" stroke-width="1" fill="none" fill-rule="evenodd">
        <g id="refresh" fill="#777777">
            <g transform="translate(3.000000, 6.000000)" id="Shape">
                <path d="M13.94,10.73 C14.92,9.59 15.51,8.12 15.51,6.5 C15.51,2.91 12.6,0 9.01,0 C5.42,0 2.51,3 2.51,6.5 L0,6.5 L3.84,10.5 L8,6.5 L4.51,6.5 C4.51,4.68412571 5.5757195,3.13204337 7.10935024,2.41856863 C7.68714146,2.14976895 8.3313473,2 9.01,2 C11.49,2 13.51,4.01 13.51,6.5 C13.51,8.98 11.49,11 9.01,11 C8.36,11 7.75,10.86 7.19,10.62 L5.71,12.1 C6.68,12.67 7.8,13 9.01,13 C10.62,13 12.09,12.41 13.23,11.43 L13.94,10.73 Z"></path>
            </g>
        </g>
    </g>
</svg>