<?xml version="1.0" encoding="UTF-8" standalone="no"?>
<svg width="24px" height="24px" viewBox="0 0 24 24" version="1.1" xmlns="http://www.w3.org/2000/svg" xmlns:xlink="http://www.w3.org/1999/xlink">
    <!-- Generator: Sketch 40.1 (33804) - http://www.bohemiancoding.com/sketch -->
    <title>reports</title>
    <desc>Created with Sketch.</desc>
    <defs></defs>
    <g id="Page-1" stroke="none" stroke-width="1" fill="none" fill-rule="evenodd">
        <g id="reports" fill="#777777">
            <g id="Group-+-Rectangle-906-Copy-11" transform="translate(3.000000, 3.000000)">
                <g id="Group">
                    <g id="Rectangle-17">
                        <path d="M1.99508929,18 L16.0049107,18 C17.1073772,18 18,17.1067681 18,16.0049107 L18,1.99508929 C18,0.892622799 17.1067681,0 16.0049107,0 L1.99508929,0 C0.892622799,0 0,0.893231902 0,1.99508929 L0,16.0049107 C0,17.1073772 0.893231902,18 1.99508929,18 Z M2,3.99508929 L1.99508929,2 L16.0049107,2 L16,3.99508929 L16,16.0049107 L14.0049107,16 L1.99508929,16 L2,3.99508929 Z"></path>
                    </g>
                    <rect id="Rectangle-605" x="4" y="11" width="2" height="4"></rect>
                    <rect id="Rectangle-606" x="8" y="5" width="2" height="10"></rect>
                    <rect id="Rectangle-607" x="12" y="7" width="2" height="8"></rect>
                </g>
            </g>
        </g>
    </g>
</svg>