<?xml version="1.0" encoding="UTF-8" standalone="no"?>
<svg width="24px" height="24px" viewBox="0 0 24 24" version="1.1" xmlns="http://www.w3.org/2000/svg" xmlns:xlink="http://www.w3.org/1999/xlink">
    <!-- Generator: Sketch 40.1 (33804) - http://www.bohemiancoding.com/sketch -->
    <title>restore-file</title>
    <desc>Created with Sketch.</desc>
    <defs></defs>
    <g id="Page-1" stroke="none" stroke-width="1" fill="none" fill-rule="evenodd">
        <g id="restore-file" fill="#777777">
            <g id="ic_restore_black_24px" transform="translate(1.000000, 3.000000)">
                <g id="Group">
                    <path d="M12,0 C7.03,0 3,4.03 3,9 L0,9 L3.89,12.89 L3.96,13.03 L8,9 L5,9 C5,5.13 8.13,2 12,2 C15.87,2 19,5.13 19,9 C19,12.87 15.87,16 12,16 C10.07,16 8.32,15.21 7.06,13.94 L5.64,15.36 C7.27,16.99 9.51,18 12,18 C16.97,18 21,13.97 21,9 C21,4.03 16.97,0 12,0 L12,0 Z M11,5 L11,10 L15.28,12.54 L16,11.33 L12.5,9.25 L12.5,5 L11,5 L11,5 Z" id="Shape"></path>
                </g>
            </g>
        </g>
    </g>
</svg>