<svg xmlns="http://www.w3.org/2000/svg" viewBox="0 0 24 24">
  <path fill-rule="evenodd" d="M9.13 18.18c-.402-.077-.77-.234-1.09-.46-.176-.126-.533-.484-.62-.623-.027-.04-.09-.125-.143-.186-.052-.058-.096-.122-.096-.142 0-.017-.04-.084-.09-.15-.118-.164-.272-.414-.342-.565-.035-.07-.093-.17-.134-.22-.04-.053-.087-.14-.107-.196-.018-.055-.067-.15-.11-.215-.044-.064-.094-.16-.114-.215-.018-.055-.07-.16-.117-.233-.046-.072-.098-.183-.116-.24-.02-.06-.06-.14-.09-.178-.032-.038-.08-.137-.113-.218-.032-.082-.1-.22-.146-.303-.045-.084-.092-.19-.1-.235-.012-.044-.06-.143-.102-.218-.047-.076-.096-.175-.105-.224-.012-.047-.064-.166-.116-.262-.053-.096-.11-.227-.13-.29-.02-.065-.068-.164-.103-.22-.035-.054-.08-.153-.1-.217-.02-.065-.08-.2-.132-.306-.053-.105-.102-.227-.114-.27-.01-.047-.05-.13-.087-.19-.037-.058-.09-.18-.118-.267-.03-.087-.082-.206-.116-.262-.035-.055-.082-.154-.102-.218-.02-.064-.082-.203-.134-.308-.055-.106-.1-.207-.1-.225 0-.02-.05-.14-.115-.264-.064-.124-.116-.243-.116-.26 0-.02-.054-.143-.118-.27-.064-.132-.116-.257-.116-.278 0-.023-.047-.125-.102-.223-.055-.103-.102-.205-.102-.228 0-.023-.052-.146-.116-.27-.064-.126-.116-.25-.116-.274 0-.026-.038-.116-.084-.2-.05-.085-.108-.22-.134-.3-.026-.078-.093-.23-.148-.334-.056-.105-.1-.21-.1-.236 0-.026-.037-.113-.084-.195-.046-.08-.1-.206-.12-.28-.02-.068-.07-.2-.115-.29-.044-.087-.09-.19-.102-.232-.012-.04-.073-.185-.137-.328C2.03 5.668 2 5.572 2 5.45c-.003-.186.03-.233.233-.352.157-.093.453-.125.66-.073.165.04.407.198.456.294.017.04.072.124.118.188.108.15.25.37.34.523.04.068.102.16.14.207.102.128.326.474.326.5 0 .012.038.067.084.123.044.055.105.148.134.203.03.055.084.143.122.19.078.095.227.32.305.46.028.05.084.138.124.193.085.114.22.32.343.52.047.073.108.16.137.193.03.03.078.11.11.176.032.064.082.134.108.157.026.02.067.087.09.142.023.06.076.137.11.178.038.04.094.12.12.174.03.056.09.15.134.204.046.056.084.117.084.137 0 .02.038.08.084.13.044.054.105.14.13.193.03.055.094.154.143.224.09.122.2.29.326.49.148.243.24.382.343.522.058.08.108.163.108.18 0 .017.038.076.084.13.044.056.105.15.134.204.03.056.1.157.154.227.107.13.218.163.262.073.01-.03.01-.954 0-2.06-.03-2.598-.024-2.688.19-3.046.234-.392.595-.642 1.173-.81.306-.09.333-.094.868-.097.546 0 .555 0 .872.1.445.133.68.258 1 .525.27.224.5.498.645.77.035.065.093.158.13.207.04.05.07.104.07.12s.047.097.103.182c.055.08.128.212.16.285.035.072.08.157.104.183.026.03.088.13.137.23.168.328.237.453.295.54.06.087.18.308.323.593.044.088.108.2.143.247.036.05.082.134.102.19.02.055.067.14.1.186.063.09.182.31.334.622.154.317.357.52.42.418.01-.014.024-.325.033-.692.02-.84.063-1.415.118-1.63.027-.094.07-.265.1-.384.03-.12.08-.25.11-.294.032-.04.084-.128.116-.192.113-.224.384-.424.74-.547.187-.063.27-.075.557-.075.297 0 .367.012.58.084.275.096.496.23.703.43.206.204.288.3.35.416.025.056.07.128.1.16s.128.21.22.393c.092.183.185.366.208.407.024.04.074.145.114.232.04.088.093.192.117.233.024.04.07.13.102.203.032.073.082.178.11.233.11.215.132.256.472.968.1.208.16.263.267.248.05-.006.077-.046.115-.16.026-.084.072-.19.1-.232.033-.047.077-.134.1-.198.076-.192.28-.442.422-.512.107-.052.17-.058.384-.05.227.01.268.018.376.097.16.113.197.218.154.448-.018.097-.058.25-.09.344-.032.093-.085.276-.117.41-.032.13-.084.302-.116.378-.035.075-.087.226-.12.34-.03.11-.08.24-.11.29-.026.047-.066.137-.087.198-.075.24-.34.45-.67.544-.26.07-.368.073-.63.012-.244-.056-.418-.15-.59-.314-.168-.16-.378-.42-.378-.47 0-.02-.046-.092-.1-.16-.057-.07-.103-.144-.103-.16 0-.022-.048-.106-.106-.19-.055-.085-.122-.2-.145-.256-.024-.058-.068-.13-.097-.163-.03-.032-.084-.116-.12-.19-.037-.072-.09-.162-.12-.2-.03-.04-.083-.13-.115-.203-.032-.073-.075-.15-.1-.177-.036-.044-.156-.253-.3-.54-.045-.083-.094-.173-.117-.2-.04-.048-.19-.063-.22-.02-.01.015-.003.478.014 1.027.044 1.436.044 2.387.003 2.61-.02.106-.072.312-.12.46-.066.213-.11.303-.217.425-.37.436-1.11.62-1.776.442-.463-.125-.88-.425-1.306-.934l-.212-.25c-.108-.122-.192-.235-.337-.447-.057-.082-.124-.166-.15-.19-.026-.02-.072-.087-.1-.142-.03-.058-.09-.136-.13-.174-.04-.04-.075-.087-.075-.108 0-.02-.05-.096-.11-.168-.108-.13-.192-.25-.288-.407-.03-.047-.108-.157-.175-.25-.07-.094-.125-.178-.125-.19 0-.01-.046-.072-.102-.14-.055-.063-.1-.13-.1-.147 0-.018-.054-.096-.118-.178-.064-.078-.116-.157-.116-.168 0-.015-.037-.08-.083-.146-.044-.067-.105-.157-.13-.2-.056-.093-.205-.114-.234-.035-.02.05.02 1.392.07 2.366.07 1.354.087 1.77.093 2.427l.01.698-.1.305c-.206.628-.578.99-1.238 1.207-.198.067-.294.078-.655.087-.232.006-.453.003-.494-.003z"/>
</svg>