<?xml version="1.0" encoding="UTF-8" standalone="no"?>
<svg width="24px" height="24px" viewBox="0 0 24 24" version="1.1" xmlns="http://www.w3.org/2000/svg" xmlns:xlink="http://www.w3.org/1999/xlink">
    <!-- Generator: Sketch 40.1 (33804) - http://www.bohemiancoding.com/sketch -->
    <title>sm-close</title>
    <desc>Created with Sketch.</desc>
    <defs></defs>
    <g id="Page-1" stroke="none" stroke-width="1" fill="none" fill-rule="evenodd">
        <g id="sm-close" fill="#777777">
            <g id="Oval-26-+-Line-+-Line-2-+-Rectangle-906-Copy-13" transform="translate(3.000000, 3.000000)">
                <g id="Oval-26-+-Line-+-Line-2">
                    <path d="M9,18 C13.9705627,18 18,13.9705627 18,9 C18,4.02943725 13.9705627,0 9,0 C4.02943725,0 0,4.02943725 0,9 C0,13.9705627 4.02943725,18 9,18 L9,18 Z M9,16 C5.13400675,16 2,12.8659932 2,9 C2,5.13400675 5.13400675,2 9,2 C12.8659932,2 16,5.13400675 16,9 C16,12.8659932 12.8659932,16 9,16 L9,16 Z" id="Shape"></path>
                    <g id="Line-+-Line-2" transform="translate(5.000000, 5.000000)">
                        <polygon id="Line" transform="translate(4.000000, 4.000000) rotate(-270.000000) translate(-4.000000, -4.000000) " points="5.80312228 7.21733585 6.15667567 7.57088925 7.57088925 6.15667567 7.21733585 5.80312228 2.19687772 0.782664145 1.84332433 0.429110754 0.429110754 1.84332433 0.782664145 2.19687772"></polygon>
                        <polygon id="Line-2" transform="translate(4.021573, 4.000000) rotate(-90.000000) translate(-4.021573, -4.000000) " points="0.839592358 5.76776694 0.486038967 6.12132033 1.90025254 7.53553391 2.25380593 7.18198052 7.20355339 2.23223306 7.55710678 1.87867967 6.14289321 0.464466094 5.78933982 0.818019485"></polygon>
                    </g>
                </g>
            </g>
        </g>
    </g>
</svg>