<?xml version="1.0" encoding="UTF-8" standalone="no"?>
<svg width="24px" height="24px" viewBox="0 0 24 24" version="1.1" xmlns="http://www.w3.org/2000/svg" xmlns:xlink="http://www.w3.org/1999/xlink">
    <!-- Generator: Sketch 40.1 (33804) - http://www.bohemiancoding.com/sketch -->
    <title>source</title>
    <desc>Created with Sketch.</desc>
    <defs></defs>
    <g id="Page-1" stroke="none" stroke-width="1" fill="none" fill-rule="evenodd">
        <g id="source" fill="#777777">
            <g id="target-(1)" transform="translate(2.000000, 2.000000)">
                <path d="M9,0 L9,2.07 C5.38,2.53 2.53,5.38 2.07,9 L0,9 L0,11 L2.07,11 C2.53,14.62 5.38,17.47 9,17.93 L9,20 L11,20 L11,17.93 C14.62,17.47 17.47,14.62 17.93,11 L20,11 L20,9 L17.93,9 C17.47,5.38 14.62,2.53 11,2.07 L11,0 L9,0 Z M9,4.08 L9,6 L11,6 L11,4.09 C13.5,4.5 15.5,6.5 15.92,9 L14,9 L14,11 L15.91,11 C15.5,13.5 13.5,15.5 11,15.92 L11,14 L9,14 L9,15.91 C6.5,15.5 4.5,13.5 4.08,11 L6,11 L6,9 L4.09,9 C4.5,6.5 6.5,4.5 9,4.08 L9,4.08 Z M10,9 C9.44771525,9 9,9.44771525 9,10 C9,10.5522847 9.44771525,11 10,11 C10.5522847,11 11,10.5522847 11,10 C11,9.44771525 10.5522847,9 10,9 L10,9 Z" id="Shape"></path>
            </g>
        </g>
    </g>
</svg>