<?xml version="1.0" encoding="UTF-8" standalone="no"?>
<svg width="24px" height="24px" viewBox="0 0 24 24" version="1.1" xmlns="http://www.w3.org/2000/svg" xmlns:xlink="http://www.w3.org/1999/xlink">
    <!-- Generator: Sketch 40.1 (33804) - http://www.bohemiancoding.com/sketch -->
    <title>spreadsheet-file</title>
    <desc>Created with Sketch.</desc>
    <defs></defs>
    <g id="Page-1" stroke="none" stroke-width="1" fill="none" fill-rule="evenodd">
        <g id="spreadsheet-file" fill="#777777">
            <g id="Spreadsheet" transform="translate(4.000000, 2.000000)">
                <g id="Rectangle-67-Copy-+-Rectangle-906-Copy-11-Copy-Copy-Copy">
                    <g id="Rectangle-67-Copy-4">
                        <path d="M0,1.99079514 C0,0.891309342 0.902306354,0 2.00932295,0 L12.0047363,0 L16,4.00708008 L16,18.0068221 C16,19.1076239 15.1054862,20 14.0059397,20 L1.99406028,20 C0.892771196,20 0,19.1017876 0,18.0092049 L0,1.99079514 Z M11,1 L15,5 L11,5 L11,1 Z M3,7 L7,7 L7,9 L3,9 L3,7 Z M9,7 L13,7 L13,9 L9,9 L9,7 Z M3,11 L7,11 L7,13 L3,13 L3,11 Z M9,11 L13,11 L13,13 L9,13 L9,11 Z M9,15 L13,15 L13,17 L9,17 L9,15 Z M3,15 L7,15 L7,17 L3,17 L3,15 Z" id="Rectangle-67"></path>
                    </g>
                </g>
            </g>
        </g>
    </g>
</svg>