<?xml version="1.0" encoding="UTF-8" standalone="no"?>
<svg width="24px" height="24px" viewBox="0 0 24 24" version="1.1" xmlns="http://www.w3.org/2000/svg" xmlns:xlink="http://www.w3.org/1999/xlink">
    <!-- Generator: Sketch 40.1 (33804) - http://www.bohemiancoding.com/sketch -->
    <title>statements</title>
    <desc>Created with Sketch.</desc>
    <defs></defs>
    <g id="Page-1" stroke="none" stroke-width="1" fill="none" fill-rule="evenodd">
        <g id="statements">
            <g id="Group-+-Rectangle-527-+-Rectangle-906-Copy-10" transform="translate(4.000000, 2.000000)">
                <g id="Group" transform="translate(5.000000, 5.000000)"></g>
                <path d="M0,1.99079514 C0,0.891309342 0.894513756,0 1.99406028,0 L14.0059397,0 C15.1072288,0 16,0.898212381 16,1.99079514 L16,18.0092049 C16,19.1086907 15.1054862,20 14.0059397,20 L1.99406028,20 C0.892771196,20 0,19.1017876 0,18.0092049 L0,1.99079514 Z M2,3 L14,3 L14,5 L2,5 L2,3 Z M2,7 L14,7 L14,9 L2,9 L2,7 Z M2,11 L14,11 L14,13 L2,13 L2,11 Z M2,15 L14,15 L14,17 L2,17 L2,15 Z" id="Rectangle-527" fill="#777777"></path>
            </g>
        </g>
    </g>
</svg>