<svg xmlns="http://www.w3.org/2000/svg" viewBox="0 0 24 24">
  <path fill-rule="evenodd" d="M13.264 21.918l-.25-1.984c1.477-.186 2.87-.784 4.03-1.727l1.262 1.552c-1.45 1.178-3.193 1.925-5.042 2.158zm-3.312-.13c-1.822-.38-3.5-1.262-4.854-2.553l1.38-1.447c1.084 1.032 2.425 1.738 3.88 2.042l-.406 1.958zm10.546-4.516l-1.7-1.056C19.586 14.952 20 13.494 20 11.998c0-.17-.005-.34-.016-.51l1.997-.123c.014.21.02.42.02.633 0 1.87-.52 3.693-1.502 5.274zm-17.388-.69C2.385 15.176 2 13.592 2 11.998c0-.267.01-.53.03-.792l1.995.157c-.017.21-.025.42-.025.635 0 1.293.3 2.526.888 3.666l-1.778.918zm16.27-7.675c-.574-1.373-1.522-2.558-2.74-3.427l1.162-1.628c1.52 1.085 2.704 2.565 3.424 4.28l-1.845.775zM4.67 8.79l-1.833-.803C3.584 6.282 4.79 4.82 6.33 3.76l1.134 1.647c-1.23.85-2.197 2.018-2.795 3.383zm9.585-4.47c-1.417-.416-2.966-.427-4.388-.035l-.53-1.928c1.776-.49 3.71-.476 5.48.043l-.562 1.92z"/>
</svg>