<?xml version="1.0" encoding="UTF-8" standalone="no"?>
<svg width="24px" height="24px" viewBox="0 0 24 24" version="1.1" xmlns="http://www.w3.org/2000/svg" xmlns:xlink="http://www.w3.org/1999/xlink">
    <!-- Generator: Sketch 40.1 (33804) - http://www.bohemiancoding.com/sketch -->
    <title>status</title>
    <desc>Created with Sketch.</desc>
    <defs></defs>
    <g id="Page-1" stroke="none" stroke-width="1" fill="none" fill-rule="evenodd">
        <g id="status" fill="#777777">
            <g id="Imported-Layers-+-Rectangle-905-Copy-9" transform="translate(2.000000, 2.000000)">
                <path d="M11.264,19.9177917 L11.013,17.9337917 C12.491,17.7477917 13.884,17.1497917 15.044,16.2067917 L16.306,17.7587917 C14.856,18.9377917 13.113,19.6847917 11.264,19.9177917 L11.264,19.9177917 Z M7.952,19.7877917 C6.13,19.4087917 4.451,18.5257917 3.098,17.2347917 L4.479,15.7877917 C5.562,16.8197917 6.903,17.5257917 8.359,17.8297917 L7.952,19.7877917 L7.952,19.7877917 Z M18.498,15.2717917 L16.799,14.2157917 C17.585,12.9517917 18,11.4937917 18,9.99779168 C18,9.82679168 17.995,9.65679168 17.984,9.48879168 L19.981,9.36479168 C19.994,9.57379168 20,9.78479168 20,9.99779168 C20,11.8667917 19.48,13.6907917 18.498,15.2717917 L18.498,15.2717917 Z M1.11,14.5817917 C0.385,13.1757917 0,11.5907917 0,9.99779168 C0,9.73079168 0.01,9.46679168 0.031,9.20579168 L2.025,9.36279168 C2.008,9.57279168 2,9.78379168 2,9.99779168 C2,11.2907917 2.299,12.5237917 2.888,13.6637917 L1.11,14.5817917 L1.11,14.5817917 Z M17.381,6.90679168 C16.806,5.53379168 15.858,4.34879168 14.64,3.47979168 L15.802,1.85179168 C17.322,2.93679168 18.506,4.41679168 19.226,6.13279168 L17.381,6.90679168 L17.381,6.90679168 Z M2.669,6.78979168 L0.837,5.98679168 C1.584,4.28179168 2.791,2.81979168 4.329,1.75979168 L5.464,3.40679168 C4.233,4.25579168 3.267,5.42479168 2.669,6.78979168 L2.669,6.78979168 Z M12.255,2.31879168 C10.838,1.90379168 9.289,1.89279168 7.867,2.28479168 L7.336,0.356791677 C9.113,-0.132208323 11.047,-0.119208323 12.817,0.399791677 L12.255,2.31879168 L12.255,2.31879168 Z" id="Imported-Layers"></path>
            </g>
        </g>
    </g>
</svg>