<svg viewBox="0 0 19 19" xmlns="http://www.w3.org/2000/svg">
  <path d="M10.377 1.878h3.413c1.104 0 2 .886 2 2.003v6.09c-.5-.152-1.03-.234-1.58-.234-1.874 0-3.52.954-4.452 2.39H2.632v1.707h6.42c-.068.33-.105.674-.105 1.025 0 .535.085 1.05.24 1.536H2c-1.105 0-2-.885-2-2V3.88c0-1.104.894-2 2-2h3.413C5.773.883 6.75.17 7.895.17c1.146 0 2.12.713 2.482 1.708zM2.632 5.293V7h10.526V5.293H2.632zm0 3.414v1.708h8.772V8.707H2.632zm4.386-5.975c0-.472.392-.854.877-.854.484 0 .877.382.877.854 0 .47-.393.853-.877.853-.485 0-.877-.382-.877-.853zm7.727 11.595v-2.034H13.69v2.034h-2.033v1.054h2.034v2.038h1.058V15.38h2.034v-1.053h-2.034zm-.527 4.624c-2.328 0-4.216-1.83-4.216-4.093s1.888-4.098 4.216-4.098c2.328 0 4.215 1.834 4.215 4.097s-1.887 4.097-4.215 4.097z" fill="#777" fill-rule="evenodd"/>
</svg>
