<?xml version="1.0" encoding="UTF-8" standalone="no"?>
<svg width="24px" height="24px" viewBox="0 0 24 24" version="1.1" xmlns="http://www.w3.org/2000/svg" xmlns:xlink="http://www.w3.org/1999/xlink">
    <!-- Generator: Sketch 40.1 (33804) - http://www.bohemiancoding.com/sketch -->
    <title>survey-override</title>
    <desc>Created with Sketch.</desc>
    <defs></defs>
    <g id="Page-1" stroke="none" stroke-width="1" fill="none" fill-rule="evenodd">
        <g id="survey-override" fill="#777777">
            <g id="Group" transform="translate(4.000000, 2.000000)">
                <path d="M10.82,2 C10.4,0.84 9.3,0 8,0 C6.7,0 5.6,0.84 5.18,2 L2,2 C0.9,2 0,2.9 0,4 L0,18 C0,19.1 0.9,20 2,20 L14,20 C15.1,20 16,19.1 16,18 L16,4 C16,2.9 15.1,2 14,2 L10.82,2 Z M8,2 C8.55,2 9,2.45 9,3 C9,3.55 8.55,4 8,4 C7.45,4 7,3.55 7,3 C7,2.45 7.45,2 8,2 L8,2 Z M2,18 L2,4 L4,4 L4,5.01885986 C4,5.01885986 4.01105824,6.01885986 4.01658736,6.01885986 L12,6.01885986 L12,4 L14,4 L14,18 L2,18 Z" id="Shape"></path>
                <g id="Oval-26-+-Line-+-Line-2-+-Rectangle-906-Copy-13" transform="translate(3.000000, 7.000000)">
                    <g id="Oval-26-+-Line-+-Line-2">
                        <g id="Line-+-Line-2">
                            <polygon id="Line" transform="translate(5.000000, 5.000000) rotate(-270.000000) translate(-5.000000, -5.000000) " points="7.80312228 9.21733585 8.15667567 9.57088925 9.57088925 8.15667567 9.21733585 7.80312228 2.19687772 0.782664145 1.84332433 0.429110754 0.429110754 1.84332433 0.782664145 2.19687772"></polygon>
                            <polygon id="Line-2" transform="translate(5.021573, 5.000000) rotate(-90.000000) translate(-5.021573, -5.000000) " points="0.839592358 7.76776694 0.486038967 8.12132033 1.90025254 9.53553391 2.25380593 9.18198052 9.20355339 2.23223306 9.55710678 1.87867967 8.14289321 0.464466094 7.78933982 0.818019485"></polygon>
                        </g>
                    </g>
                </g>
            </g>
        </g>
    </g>
</svg>