<svg xmlns="http://www.w3.org/2000/svg" viewBox="0 0 24 24">
  <g fill-rule="evenodd">
    <path d="M14.82 4C14.4 2.84 13.3 2 12 2c-1.3 0-2.4.84-2.82 2H6c-1.1 0-2 .9-2 2v14c0 1.1.9 2 2 2h12c1.1 0 2-.9 2-2V6c0-1.1-.9-2-2-2h-3.18zM12 4c.55 0 1 .45 1 1s-.45 1-1 1-1-.45-1-1 .45-1 1-1zM6 20V6h2v1.02s.01 1 .017 1H16V6h2v14H6z"/>
    <path d="M7.783 16.803l-.354.354 1.41 1.413.353-.352 7.02-7.02.354-.354-1.413-1.414-.354.353"/>
    <path d="M14.79 18.182l.353.354 1.414-1.415-.353-.35-6.95-6.95-.354-.353-1.414 1.415.354.353"/>
  </g>
</svg>