<?xml version="1.0" encoding="UTF-8" standalone="no"?>
<svg width="24px" height="24px" viewBox="0 0 24 24" version="1.1" xmlns="http://www.w3.org/2000/svg" xmlns:xlink="http://www.w3.org/1999/xlink">
    <g id="Page-1" stroke="none" stroke-width="1" fill="none" fill-rule="evenodd">
        <g id="switch-account" fill="#777777">
            <g id="Group" transform="translate(1.000000, 4.000000)">
                <g id="Imported-Layers-+-Oval-204-+-Rectangle-906-Copy-8" transform="translate(11.000000, 4.000000)">
                    <g id="Imported-Layers-+-Oval-204">
                        <path d="M5,7.5 C2.264375,7.5 0.045,8.84925 0.00375,10.52325 L0,11.9715 L10,11.9715 L10,10.52325 C9.955,8.84925 7.735625,7.5 5,7.5 Z" id="Imported-Layers"></path>
                        <path d="M5,6.3 C6.65685425,6.3 8,4.88969696 8,3.15 C8,1.41030304 6.65685425,0 5,0 C3.34314575,0 2,1.41030304 2,3.15 C2,4.88969696 3.34314575,6.3 5,6.3 Z" id="Oval-204"></path>
                    </g>
                </g>
                <g id="swap-vert-+-Rectangle-906-Copy-9">
                    <g id="swap-vert">
                        <polygon id="Shape-Copy" transform="translate(4.011111, 3.510232) rotate(-180.000000) translate(-4.011111, -3.510232) " points="5.02222223 0.0204639435 3 0.0204639435 3 3.99824171 0.966666671 3.99824171 4.01111123 7 7.05555556 3.99824171 5.02222223 3.99824171"></polygon>
                        <polygon id="Shape-Copy" transform="translate(8.011111, 8.510232) rotate(-360.000000) translate(-8.011111, -8.510232) " points="9.02222223 5.02046394 7 5.02046394 7 8.99824171 4.96666667 8.99824171 8.01111123 12 11.0555556 8.99824171 9.02222223 8.99824171"></polygon>
                    </g>
                </g>
            </g>
        </g>
    </g>
</svg>