<?xml version="1.0" encoding="UTF-8" standalone="no"?>
<svg width="24px" height="24px" viewBox="0 0 24 24" version="1.1" xmlns="http://www.w3.org/2000/svg" xmlns:xlink="http://www.w3.org/1999/xlink">
    <!-- Generator: Sketch 40.1 (33804) - http://www.bohemiancoding.com/sketch -->
    <title>tag</title>
    <desc>Created with Sketch.</desc>
    <defs></defs>
    <g id="Page-1" stroke="none" stroke-width="1" fill="none" fill-rule="evenodd">
        <g id="tag" fill="#777777">
            <g id="ic_loyalty_black_24px" transform="translate(4.000000, 4.000000)">
                <path d="M15.528,7.664 L8.328,0.464 C8.04,0.176 7.64,0 7.2,0 L1.6,0 C0.72,0 0,0.72 0,1.6 L0,7.2 C0,7.64 0.176,8.04 0.472,8.336 L7.672,15.536 C7.96,15.824 8.36,16 8.8,16 C9.24,16 9.64,15.824 9.928,15.528 L15.528,9.928 C15.824,9.64 16,9.24 16,8.8 C16,8.36 15.816,7.952 15.528,7.664 L15.528,7.664 Z M3.5,5 C2.67,5 2,4.33 2,3.5 C2,2.67 2.67,2 3.5,2 C4.33,2 5,2.67 5,3.5 C5,4.33 4.33,5 3.5,5 L3.5,5 Z" id="Shape"></path>
            </g>
        </g>
    </g>
</svg>