<?xml version="1.0" encoding="UTF-8" standalone="no"?>
<svg width="24px" height="24px" viewBox="0 0 24 24" version="1.1" xmlns="http://www.w3.org/2000/svg" xmlns:xlink="http://www.w3.org/1999/xlink" xmlns:sketch="http://www.bohemiancoding.com/sketch/ns">
    <!-- Generator: Sketch 3.3.1 (12002) - http://www.bohemiancoding.com/sketch -->
    <title>projects</title>
    <desc>Created with Sketch.</desc>
    <defs></defs>
    <g id="Page-1" stroke="none" stroke-width="1" fill="none" fill-rule="evenodd" sketch:type="MSPage">
        <g id="projects" sketch:type="MSArtboardGroup" fill="#777777">
            <g id="Rectangle-43" sketch:type="MSLayerGroup" transform="translate(3.000000, 3.000000)">
                <path d="M0,1.99508929 C0,0.893231902 0.892622799,0 1.99508929,0 L16.0049107,0 C17.1067681,0 18,0.892622799 18,1.99508929 L18,16.0049107 C18,17.1067681 17.1073772,18 16.0049107,18 L1.99508929,18 C0.893231902,18 0,17.1073772 0,16.0049107 L0,1.99508929 Z M6.60666233,14.2409702 L7.34470439,14.9098543 L8.01650561,14.1744666 L16.2383054,5.17446657 L14.7616946,3.82553343 L7.21692417,12.0948844 C5.86846215,10.872779 3.17153789,8.42856893 3.17153789,8.42856893 L1.82846211,9.91050936 L6.60666233,14.2409702 Z" sketch:type="MSShapeGroup"></path>
            </g>
        </g>
    </g>
</svg>