<?xml version="1.0" encoding="UTF-8" standalone="no"?>
<svg width="24px" height="24px" viewBox="0 0 24 24" version="1.1" xmlns="http://www.w3.org/2000/svg" xmlns:xlink="http://www.w3.org/1999/xlink">
    <!-- Generator: Sketch 40.1 (33804) - http://www.bohemiancoding.com/sketch -->
    <title>taxes</title>
    <desc>Created with Sketch.</desc>
    <defs></defs>
    <g id="Page-1" stroke="none" stroke-width="1" fill="none" fill-rule="evenodd">
        <g id="taxes" fill="#777777">
            <g id="Rectangle-17-+-Oval-7-+-Rectangle-906" transform="translate(3.000000, 2.000000)">
                <g id="Rectangle-17-+-Oval-7">
                    <path d="M6.17070571,2 L1.99508929,2 C0.892622799,2 0,2.89547804 0,4.00010618 L0,16.9998938 C0,18.1099416 0.893231902,19 1.99508929,19 L16.0049107,19 C17.1073772,19 18,18.104522 18,16.9998938 L18,4.00010618 C18,2.89005841 17.1067681,2 16.0049107,2 L11.8292943,2 C11.4174579,0.834807627 10.3062188,0 9,0 C7.69378117,0 6.58254212,0.834807627 6.17070571,2 Z M3,6 L15,6 L15,8 L3,8 L3,6 Z M3,10 L13,10 L13,12 L3,12 L3,10 Z M3,14 L13,14 L13,16 L3,16 L3,14 Z M8,3 C8,2.44771525 8.44771525,2 9,2 C9.55228475,2 10,2.44771525 10,3 C10,3.55228475 9.55228475,4 9,4 C8.44771525,4 8,3.55228475 8,3 Z" id="Rectangle-17"></path>
                </g>
            </g>
        </g>
    </g>
</svg>