<?xml version="1.0" encoding="UTF-8" standalone="no"?>
<svg width="24px" height="24px" viewBox="0 0 24 24" version="1.1" xmlns="http://www.w3.org/2000/svg" xmlns:xlink="http://www.w3.org/1999/xlink">
    <!-- Generator: Sketch 40.1 (33804) - http://www.bohemiancoding.com/sketch -->
    <title>template</title>
    <desc>Created with Sketch.</desc>
    <defs></defs>
    <g id="Page-1" stroke="none" stroke-width="1" fill="none" fill-rule="evenodd">
        <g id="template" fill="#777777">
            <g id="Group-+-Rectangle-906-Copy-14" transform="translate(3.000000, 3.000000)">
                <g id="Group">
                    <g id="Rectangle-460-+-Rectangle-461-+-Rectangle-462" transform="translate(6.000000, 9.000000) scale(-1, 1) translate(-6.000000, -9.000000) translate(4.000000, 4.000000)">
                        <rect id="Rectangle-461" x="0" y="0" width="4" height="10"></rect>
                    </g>
                    <rect id="Rectangle-461-Copy" x="9" y="11" width="5" height="3"></rect>
                    <path d="M2,1.99508929 L2,1.99508929 L2,16.0049107 C2,16.0025029 1.99749657,16 1.99508929,16 L16.0049107,16 C16.0025029,16 16,16.0025034 16,16.0049107 L16,1.99508929 C16,1.9974971 16.0025034,2 16.0049107,2 L1.99508929,2 C1.9974971,2 2,1.99749657 2,1.99508929 L2,1.99508929 Z M16,9 L17.9876507,9 L18,9.01121606 L18,16.0049107 C18,17.1067681 17.1073772,18 16.0049107,18 L1.99508929,18 C0.893231902,18 0,17.1073772 0,16.0049107 L0,1.99508929 C0,0.893231902 0.892622799,0 1.99508929,0 L8.0391694,0 L8,0 L8,2 L16,2 L16,9 Z" id="Shape"></path>
                    <path d="M14,4 L14,1 L12,1 L12,4 L9,4 L9,6 L12,6 L12,9 L14,9 L14,6 L17,6 L17,4 L14,4 Z" id="Rectangle-652"></path>
                </g>
            </g>
        </g>
    </g>
</svg>