<?xml version="1.0" encoding="UTF-8" standalone="no"?>
<svg width="24px" height="24px" viewBox="0 0 24 24" version="1.1" xmlns="http://www.w3.org/2000/svg" xmlns:xlink="http://www.w3.org/1999/xlink">
    <!-- Generator: Sketch 40.1 (33804) - http://www.bohemiancoding.com/sketch -->
    <title>upload</title>
    <desc>Created with Sketch.</desc>
    <defs></defs>
    <g id="Page-1" stroke="none" stroke-width="1" fill="none" fill-rule="evenodd">
        <g id="upload" fill="#777777">
            <g id="Oval-68-+-Rectangle-905-Copy-3" transform="translate(2.000000, 5.000000)">
                <path d="M4,14.9725356 C1.75002477,14.7238135 0,12.8162768 0,10.5 C0,8.1240662 1.84133134,6.17819837 4.1748216,6.01156894 C4.06164809,5.69552641 4,5.35496255 4,5 C4,3.34314575 5.34314575,2 7,2 C7.89623981,2 8.70068734,2.39300945 9.25040562,3.01609137 C9.86359395,1.25990237 11.534664,0 13.5,0 C15.9852814,0 18,2.01471863 18,4.5 C18,4.97121337 17.9275733,5.42551058 17.7932449,5.85236676 C19.1245468,6.75070173 20,8.27311434 20,10 C20,12.7614237 17.7614237,15 15,15 L4,15 L4,14.9725356 Z M12,13 L8,13 L8,9 L12,9 L12,13 Z M14,9 L6,9 L10,5 L14,9 L14,9 Z" id="Oval-68"></path>
            </g>
        </g>
    </g>
</svg>