<?xml version="1.0" encoding="UTF-8" standalone="no"?>
<svg width="24px" height="24px" viewBox="0 0 24 24" version="1.1" xmlns="http://www.w3.org/2000/svg" xmlns:xlink="http://www.w3.org/1999/xlink">
    <!-- Generator: Sketch 40.1 (33804) - http://www.bohemiancoding.com/sketch -->
    <title>web-link-file</title>
    <desc>Created with Sketch.</desc>
    <defs></defs>
    <g id="Page-1" stroke="none" stroke-width="1" fill="none" fill-rule="evenodd">
        <g id="web-link-file">
            <g id="Group-3" transform="translate(4.000000, 2.000000)">
                <g id="files-copy-2" fill="#777777">
                    <g id="files">
                        <g id="Page-1">
                            <g id="files">
                                <g id="Rectangle-67-+-Rectangle-906-Copy-4">
                                    <g id="Rectangle-67">
                                        <path d="M0,1.99079514 C0,0.891309342 0.902306354,0 2.00932295,0 L12.0047363,0 L16,4.00708008 L16,18.0068221 C16,19.1076239 15.1054862,20 14.0059397,20 L1.99406028,20 C0.892771196,20 0,19.1017876 0,18.0092049 L0,1.99079514 L0,1.99079514 Z M11,1 L15,5 L11,5 L11,1 L11,1 Z" id="Shape"></path>
                                    </g>
                                </g>
                            </g>
                        </g>
                    </g>
                </g>
                <g id="ic_link_black_24px" transform="translate(2.000000, 9.000000)" fill="#FFFFFF">
                    <g id="Group">
                        <path d="M1.14,3 C1.14,1.974 1.974,1.14 3,1.14 L5.4,1.14 L5.4,0 L3,0 C1.344,0 0,1.344 0,3 C0,4.656 1.344,6 3,6 L5.4,6 L5.4,4.86 L3,4.86 C1.974,4.86 1.14,4.026 1.14,3 L1.14,3 Z M3.6,3.6 L8.4,3.6 L8.4,2.4 L3.6,2.4 L3.6,3.6 L3.6,3.6 Z M9,0 L6.6,0 L6.6,1.14 L9,1.14 C10.026,1.14 10.86,1.974 10.86,3 C10.86,4.026 10.026,4.86 9,4.86 L6.6,4.86 L6.6,6 L9,6 C10.656,6 12,4.656 12,3 C12,1.344 10.656,0 9,0 L9,0 Z" id="Shape"></path>
                    </g>
                </g>
            </g>
        </g>
    </g>
</svg>