<svg xmlns="http://www.w3.org/2000/svg" viewBox="0 0 24 24">
  <g fill-rule="evenodd">
    <path d="M4 3.99C4 2.89 4.902 2 6.01 2h9.995L20 6.007v14c0 1.1-.895 1.993-1.994 1.993H5.994C4.894 22 4 21.102 4 20.01V3.99zM15 3l4 4h-4V3z"/>
    <path fill="#FFF" d="M7.14 14c0-1.026.834-1.86 1.86-1.86h2.4V11H9c-1.656 0-3 1.344-3 3s1.344 3 3 3h2.4v-1.14H9c-1.026 0-1.86-.834-1.86-1.86zm2.46.6h4.8v-1.2H9.6v1.2zM15 11h-2.4v1.14H15c1.026 0 1.86.834 1.86 1.86 0 1.026-.834 1.86-1.86 1.86h-2.4V17H15c1.656 0 3-1.344 3-3s-1.344-3-3-3z"/>
  </g>
</svg>