<?xml version="1.0" encoding="UTF-8" standalone="no"?>
<svg width="24px" height="24px" viewBox="0 0 24 24" version="1.1" xmlns="http://www.w3.org/2000/svg" xmlns:xlink="http://www.w3.org/1999/xlink">
    <!-- Generator: Sketch 40.1 (33804) - http://www.bohemiancoding.com/sketch -->
    <title>wrench</title>
    <desc>Created with Sketch.</desc>
    <defs></defs>
    <g id="Page-1" stroke="none" stroke-width="1" fill="none" fill-rule="evenodd">
        <g id="wrench" fill="#777777">
            <g id="Oval-106-+-Rectangle-904" transform="translate(4.000000, 3.000000)">
                <g id="Oval-106">
                    <path d="M11.400205,8.42328312 C11.7316191,8.5122095 12.080023,8.55962976 12.4395024,8.55962976 C14.6486414,8.55962976 16.4395024,6.76876876 16.4395024,4.55962976 C16.4395024,4.19105064 16.389651,3.83411494 16.296323,3.49519737 L14.2679295,5.52359081 L11.4395024,2.69516369 L13.4470646,0.687601541 C13.1251692,0.604075876 12.7875263,0.55962976 12.4395024,0.55962976 C10.2303634,0.55962976 8.4395024,2.35049076 8.4395024,4.55962976 C8.4395024,4.91910716 8.48692212,5.2675091 8.57584752,5.59892152 C8.54907835,5.62299258 8.522797,5.64790804 8.49703772,5.67366732 L0.999823985,13.1708811 C0.216136528,13.9545685 0.218951417,15.2180836 1,15.9991322 C1.78649391,16.7856261 3.04729974,16.7802596 3.82825111,15.9993082 L11.3254648,8.50209444 C11.3512281,8.47633117 11.3761414,8.45004933 11.400205,8.42328312 Z M11.4395024,5.52359081 L11.4395024,2.69516369 L14.2679295,5.52359081 L11.4395024,5.52359081 Z"></path>
                </g>
            </g>
        </g>
    </g>
</svg>