<?xml version="1.0" encoding="UTF-8" standalone="no"?>
<svg width="24px" height="24px" viewBox="0 0 24 24" version="1.1" xmlns="http://www.w3.org/2000/svg" xmlns:xlink="http://www.w3.org/1999/xlink">
    <g id="Page-1" stroke="none" stroke-width="1" fill="none" fill-rule="evenodd">
        <g id="zip-file">
            <g id="files-copy" transform="translate(4.000000, 2.000000)">
                <g id="files">
                    <g id="Page-1">
                        <g id="files">
                            <g id="Rectangle-67-+-Rectangle-906-Copy-4">
                                <g id="Rectangle-67" fill="#777777">
                                    <path d="M0,1.99079514 C0,0.891309342 0.902306354,0 2.00932295,0 L12.0047363,0 L16,4.00708008 L16,18.0068221 C16,19.1076239 15.1054862,20 14.0059397,20 L1.99406028,20 C0.892771196,20 0,19.1017876 0,18.0092049 L0,1.99079514 L0,1.99079514 Z" id="Shape"></path>
                                </g>
                                <polygon id="Path" fill="#FFFFFF" points="10 14 8 14 8 12 6 12 6 10 8 10 8 12 10 12"></polygon>
                                <polygon id="Path-Copy" fill="#FFFFFF" points="10 18 8 18 8 16 6 16 6 14 8 14 8 16 10 16"></polygon>
                                <polygon id="Path" fill="#FFFFFF" points="10 6 8 6 8 8 10 8 10 10 8 10 8 8 6 8 6 6 8 6 8 4 6 4 6 2 8 2 8 4 10 4"></polygon>
                            </g>
                        </g>
                    </g>
                </g>
            </g>
        </g>
    </g>
</svg>