<?xml version="1.0" encoding="UTF-8" standalone="no"?>
<svg width="24px" height="24px" viewBox="0 0 24 24" version="1.1" xmlns="http://www.w3.org/2000/svg" xmlns:xlink="http://www.w3.org/1999/xlink">
    <!-- Generator: Sketch 40.3 (33839) - http://www.bohemiancoding.com/sketch -->
    <title>zoom-out</title>
    <desc>Created with Sketch.</desc>
    <defs></defs>
    <g id="Page-1" stroke="none" stroke-width="1" fill="none" fill-rule="evenodd">
        <g id="zoom-out" fill="#777777">
            <g id="Group-25-Copy-3" transform="translate(2.000000, 2.000000)">
                <polygon id="Path" points="15.2190476 14.5428571 14.952381 14.2857143 14.2857143 14.952381 14.5428571 15.2190476 14.5428571 15.9714286 18.5714286 20 20 18.5714286 15.9714286 14.5428571"></polygon>
                <g id="Oval-26-+-Line-+-Line-2-+-Rectangle-906-Copy-13">
                    <g id="Oval-26-+-Line-+-Line-2">
                        <path d="M8.57142857,17.1428571 C13.3052979,17.1428571 17.1428571,13.3052979 17.1428571,8.57142857 C17.1428571,3.83755929 13.3052979,0 8.57142857,0 C3.83755929,0 0,3.83755929 0,8.57142857 C0,13.3052979 3.83755929,17.1428571 8.57142857,17.1428571 L8.57142857,17.1428571 Z M8.57142857,15.2380952 C4.88953024,15.2380952 1.9047619,12.2533269 1.9047619,8.57142857 C1.9047619,4.88953024 4.88953024,1.9047619 8.57142857,1.9047619 C12.2533269,1.9047619 15.2380952,4.88953024 15.2380952,8.57142857 C15.2380952,12.2533269 12.2533269,15.2380952 8.57142857,15.2380952 L8.57142857,15.2380952 Z" id="Shape"></path>
                        <g id="Line-+-Line-2" transform="translate(8.571429, 8.840803) rotate(45.000000) translate(-8.571429, -8.840803) translate(4.571429, 4.840803)">
                            <polygon id="Line" transform="translate(3.809524, 3.809524) rotate(-270.000000) translate(-3.809524, -3.809524) " points="5.52678313 6.8736532 5.86350064 7.21037071 7.21037071 5.86350064 6.8736532 5.52678313 2.09226449 0.745394424 1.75554698 0.408676909 0.408676909 1.75554698 0.745394424 2.09226449"></polygon>
                        </g>
                    </g>
                </g>
            </g>
        </g>
    </g>
</svg>