<svg xmlns="http://www.w3.org/2000/svg" viewBox="0 0 24 24">
  <g fill-rule="evenodd">
    <path d="M17.22 16.543l-.268-.257-.666.666.257.267v.75L20.57 22 22 20.57l-4.03-4.027"/>
    <path d="M10.57 19.143c4.735 0 8.573-3.838 8.573-8.572 0-4.73-3.838-8.57-8.573-8.57C5.84 2 2 5.84 2 10.57c0 4.735 3.838 8.573 8.57 8.573zm0-1.905c-3.68 0-6.665-2.985-6.665-6.667 0-3.68 2.985-6.662 6.666-6.662 3.686 0 6.67 2.985 6.67 6.666 0 3.683-2.984 6.668-6.666 6.668z"/>
    <path d="M7.19 9.62h-.476v1.904h7.715V9.62h-.48"/>
  </g>
</svg>